<svg width="100%" height="100%" viewBox="0 0 28 28" fill="none" xmlns="http://www.w3.org/2000/svg">
    <path d="M23.3333 0H4.66667C2.08934 0 0 2.08934 0 4.66667V23.3333C0 25.9107 2.08934 28 4.66667 28H23.3333C25.9107 28 28 25.9107 28 23.3333V4.66667C28 2.08934 25.9107 0 23.3333 0Z" fill="black"/>
    <path d="M17.2009 4C17.2443 4 17.2878 4 17.3337 4C17.4402 5.31641 16.9378 6.30004 16.3271 7.01233C15.7279 7.71973 14.9075 8.4058 13.5804 8.3017C13.4919 7.00414 13.9952 6.09348 14.605 5.3828C15.1706 4.7205 16.2075 4.13115 17.2009 4Z" fill="white"/>
    <path d="M21.2182 17.7019C21.2182 17.715 21.2182 17.7264 21.2182 17.7388C20.8453 18.8682 20.3134 19.8363 19.6641 20.7347C19.0714 21.5503 18.3453 22.6479 17.0486 22.6479C15.928 22.6479 15.1838 21.9273 14.0354 21.9076C12.8206 21.888 12.1525 22.5101 11.0419 22.6667C10.9148 22.6667 10.7878 22.6667 10.6632 22.6667C9.8476 22.5487 9.18939 21.9027 8.70988 21.3208C7.29592 19.6011 6.20328 17.3797 6 14.5371C6 14.2584 6 13.9805 6 13.7018C6.08606 11.6673 7.0746 10.0132 8.38856 9.21158C9.08202 8.78534 10.0353 8.42223 11.0968 8.58452C11.5517 8.65501 12.0165 8.81075 12.4239 8.96486C12.8099 9.11322 13.2927 9.37634 13.7502 9.3624C14.0599 9.35339 14.3681 9.19191 14.6805 9.07798C15.5952 8.74765 16.4919 8.36895 17.6739 8.54682C19.0944 8.76158 20.1027 9.39273 20.7257 10.3665C19.524 11.1313 18.574 12.2838 18.7363 14.2519C18.8805 16.0395 19.9199 17.0855 21.2182 17.7019Z" fill="white"/>
</svg>
