<svg width="24" height="24" viewBox="0 0 24 24" fill="none" xmlns="http://www.w3.org/2000/svg">
<rect width="24" height="24" rx="4" fill="black"/>
<path d="M14.6008 4C14.638 4 14.6753 4 14.7146 4C14.8059 5.12835 14.3753 5.97146 13.8518 6.582C13.3382 7.18834 12.635 7.7764 11.4975 7.68717C11.4216 6.57498 11.853 5.79441 12.3757 5.18526C12.8605 4.61757 13.7493 4.11241 14.6008 4Z" fill="white"/>
<path d="M18.0442 15.7445C18.0442 15.7557 18.0442 15.7655 18.0442 15.7761C17.7245 16.7442 17.2686 17.574 16.7121 18.344C16.2041 19.0431 15.5817 19.9839 14.4702 19.9839C13.5097 19.9839 12.8718 19.3663 11.8875 19.3494C10.8462 19.3326 10.2736 19.8658 9.32161 20C9.21271 20 9.10381 20 8.99701 20C8.29794 19.8989 7.73376 19.3452 7.32275 18.8464C6.11079 17.3724 5.17424 15.4683 5 13.0318C5 12.7929 5 12.5547 5 12.3158C5.07377 10.572 5.92109 9.1542 7.04734 8.46707C7.64173 8.10172 8.45883 7.79048 9.36868 7.92959C9.75862 7.99001 10.157 8.1235 10.5062 8.25559C10.8371 8.38276 11.2509 8.60829 11.643 8.59634C11.9085 8.58862 12.1727 8.45021 12.4404 8.35255C13.2245 8.06941 13.9931 7.74481 15.0062 7.89727C16.2238 8.08135 17.088 8.62234 17.622 9.45701C16.592 10.1125 15.7777 11.1004 15.9168 12.7873C16.0404 14.3196 16.9313 15.2161 18.0442 15.7445Z" fill="white"/>
</svg>
