<svg width="100%" height="100%" viewBox="0 0 28 28" fill="none" xmlns="http://www.w3.org/2000/svg">
    <path d="M23.3333 0H4.66667C2.08934 0 0 2.08934 0 4.66667V23.3333C0 25.9107 2.08934 28 4.66667 28H23.3333C25.9107 28 28 25.9107 28 23.3333V4.66667C28 2.08934 25.9107 0 23.3333 0Z" fill="black"/>
    <path d="M13.8236 13.8003L7.06325 20.976L7.06425 20.9803C7.27159 21.7596 7.98329 22.3332 8.82795 22.3332C9.16559 22.3332 9.4826 22.242 9.75447 22.0817L9.77606 22.0691L17.3862 17.6777L13.8236 13.8003Z" fill="#EB3131"/>
    <path d="M20.6635 12.5787L20.657 12.5743L17.3715 10.6697L13.6699 13.9634L17.3843 17.6774L20.6525 15.7917C21.2254 15.4824 21.6145 14.8783 21.6145 14.1817C21.6145 13.4902 21.2308 12.8892 20.6635 12.5787Z" fill="#F6B60B"/>
    <path d="M7.06201 7.35679C7.02136 7.50666 7 7.66364 7 7.82665V20.5069C7 20.6695 7.02112 20.8272 7.06226 20.9765L14.056 13.9841L7.06201 7.35679Z" fill="#5778C5"/>
    <path d="M13.8733 14.1667L17.3728 10.6683L9.77121 6.26101C9.49491 6.09552 9.17241 6 8.82735 6C7.98269 6 7.27002 6.57478 7.06265 7.3549L7.06239 7.35686L13.8733 14.1667Z" fill="#3BAD49"/>
</svg>
