<svg width="24" height="24" viewBox="0 0 24 24" fill="none" xmlns="http://www.w3.org/2000/svg">
<rect width="24" height="24" rx="4" fill="black"/>
<path d="M11.5854 11.686L5.79077 17.8366C5.79099 17.8379 5.79142 17.839 5.79163 17.8403C5.96935 18.5082 6.57938 18.9999 7.30337 18.9999C7.59278 18.9999 7.8645 18.9217 8.09753 18.7843L8.11604 18.7735L14.639 15.0095L11.5854 11.686Z" fill="#EB3131"/>
<path d="M17.4481 10.6389L17.4426 10.6351L14.6264 9.00256L11.4536 11.8258L14.6374 15.0092L17.4387 13.3929C17.9298 13.1278 18.2633 12.61 18.2633 12.0129C18.2633 11.4202 17.9344 10.905 17.4481 10.6389Z" fill="#F6B60B"/>
<path d="M5.78972 6.16296C5.75488 6.29142 5.73657 6.42598 5.73657 6.5657V17.4345C5.73657 17.5739 5.75467 17.709 5.78994 17.837L11.7846 11.8435L5.78972 6.16296Z" fill="#5778C5"/>
<path d="M11.628 12L14.6275 9.00139L8.11188 5.22372C7.87505 5.08187 7.59863 5 7.30286 5C6.57887 5 5.96801 5.49267 5.79026 6.16134C5.79004 6.16199 5.79004 6.16244 5.79004 6.16302L11.628 12Z" fill="#3BAD49"/>
</svg>
