<svg width="211" height="211" viewBox="0 0 211 211" fill="none" xmlns="http://www.w3.org/2000/svg">
    <g filter="url(#filter0_d_89_3745)">
        <rect x="64" y="60" width="83" height="83" rx="20.75" fill="black"/>
        <path d="M75.5338 98.9964C73.9883 98.9964 72.611 98.7283 71.4019 98.1921C70.1928 97.6454 69.2361 96.8411 68.5317 95.7792C67.8378 94.7068 67.4908 93.3716 67.4908 91.7735C67.4908 90.4278 67.7379 89.2976 68.232 88.3829C68.7262 87.4682 69.399 86.7322 70.2507 86.175C71.1023 85.6178 72.0695 85.1972 73.1524 84.9134C74.2458 84.6295 75.3918 84.4297 76.5904 84.3141C77.9992 84.1669 79.1347 84.0302 79.9968 83.9041C80.8589 83.7674 81.4845 83.5676 81.8735 83.3048C82.2625 83.0419 82.457 82.6529 82.457 82.1378V82.0432C82.457 81.0444 82.1416 80.2716 81.5108 79.7249C80.8905 79.1782 80.0073 78.9048 78.8613 78.9048C77.6523 78.9048 76.6903 79.1729 75.9753 79.7091C75.2604 80.2348 74.7873 80.8972 74.556 81.6962L68.3424 81.1915C68.6578 79.7196 69.2781 78.4475 70.2033 77.3751C71.1285 76.2922 72.3218 75.4616 73.7832 74.8834C75.2551 74.2946 76.9584 74.0002 78.8929 74.0002C80.2386 74.0002 81.5265 74.1579 82.7566 74.4733C83.9972 74.7887 85.0959 75.2776 86.0527 75.94C87.0199 76.6023 87.7822 77.4539 88.3394 78.4948C88.8966 79.5251 89.1752 80.7605 89.1752 82.2009V98.5391H82.8039V95.18H82.6147C82.2257 95.9369 81.7053 96.6046 81.0534 97.1828C80.4016 97.7505 79.6183 98.1974 78.7036 98.5233C77.7889 98.8387 76.7323 98.9964 75.5338 98.9964ZM77.4578 94.3599C78.446 94.3599 79.3187 94.1654 80.0757 93.7764C80.8326 93.3769 81.4267 92.8407 81.8577 92.1678C82.2888 91.4949 82.5043 90.7327 82.5043 89.8811V87.3105C82.294 87.4472 82.0049 87.5733 81.6369 87.689C81.2795 87.7941 80.8747 87.894 80.4226 87.9886C79.9705 88.0727 79.5184 88.1516 79.0663 88.2252C78.6143 88.2883 78.2042 88.3461 77.8362 88.3987C77.0477 88.5143 76.3591 88.6983 75.7703 88.9506C75.1816 89.2029 74.7242 89.5446 74.3983 89.9757C74.0724 90.3962 73.9094 90.9219 73.9094 91.5527C73.9094 92.4674 74.2406 93.1666 74.9029 93.6502C75.5758 94.1233 76.4274 94.3599 77.4578 94.3599ZM104.81 74.3156V79.3622H89.8595V74.3156H104.81ZM93.2817 98.5391V72.5651C93.2817 70.8093 93.6234 69.3532 94.3068 68.1967C95.0007 67.0402 95.9469 66.1728 97.1455 65.5946C98.344 65.0163 99.7055 64.7272 101.23 64.7272C102.26 64.7272 103.201 64.806 104.053 64.9637C104.915 65.1214 105.556 65.2634 105.977 65.3895L104.778 70.4361C104.516 70.352 104.19 70.2731 103.801 70.1995C103.422 70.1259 103.033 70.0891 102.634 70.0891C101.645 70.0891 100.957 70.3204 100.568 70.783C100.179 71.2351 99.9841 71.8712 99.9841 72.6913V98.5391H93.2817ZM116.482 99.0122C113.991 99.0122 111.846 98.5075 110.048 97.4982C108.261 96.4784 106.883 95.038 105.916 93.1771C104.949 91.3057 104.465 89.0926 104.465 86.5377C104.465 84.046 104.949 81.8592 105.916 79.9772C106.883 78.0953 108.245 76.6286 110.001 75.5773C111.767 74.5259 113.838 74.0002 116.214 74.0002C117.812 74.0002 119.3 74.2578 120.677 74.773C122.065 75.2776 123.274 76.0399 124.304 77.0597C125.345 78.0795 126.155 79.3622 126.733 80.9077C127.311 82.4427 127.6 84.2405 127.6 86.3012V88.1463H107.146V83.9829H121.276C121.276 83.0157 121.066 82.1588 120.646 81.4123C120.225 80.6659 119.642 80.0824 118.895 79.6618C118.159 79.2308 117.302 79.0152 116.325 79.0152C115.305 79.0152 114.401 79.2518 113.612 79.7249C112.834 80.1875 112.224 80.8131 111.783 81.6016C111.341 82.3796 111.115 83.247 111.105 84.2037V88.1621C111.105 89.3606 111.325 90.3962 111.767 91.2689C112.219 92.1415 112.855 92.8144 113.675 93.2875C114.495 93.7606 115.468 93.9972 116.593 93.9972C117.339 93.9972 118.023 93.892 118.643 93.6818C119.263 93.4715 119.794 93.1561 120.236 92.7355C120.677 92.315 121.014 91.7998 121.245 91.19L127.459 91.6001C127.143 93.093 126.497 94.3967 125.519 95.5111C124.551 96.6151 123.3 97.4772 121.765 98.0975C120.241 98.7073 118.48 99.0122 116.482 99.0122ZM142.265 74.3156V79.3622H127.678V74.3156H142.265ZM130.989 68.5121H137.708V91.0954C137.708 91.7157 137.802 92.1993 137.991 92.5463C138.181 92.8827 138.444 93.1193 138.78 93.256C139.127 93.3926 139.526 93.461 139.979 93.461C140.294 93.461 140.609 93.4347 140.925 93.3821C141.24 93.319 141.482 93.2717 141.65 93.2402L142.707 98.2394C142.37 98.3446 141.897 98.4655 141.287 98.6021C140.678 98.7493 139.936 98.8387 139.064 98.8702C137.445 98.9333 136.025 98.7178 134.806 98.2237C133.597 97.7295 132.656 96.962 131.983 95.9212C131.31 94.8803 130.979 93.5661 130.989 91.9785V68.5121Z" fill="white"/>
        <path d="M81.5108 111.316V116.362H66.9231V111.316H81.5108ZM70.2349 105.512H76.9531V128.095C76.9531 128.716 77.0477 129.199 77.237 129.546C77.4262 129.883 77.6891 130.119 78.0255 130.256C78.3724 130.393 78.772 130.461 79.224 130.461C79.5395 130.461 79.8549 130.435 80.1703 130.382C80.4857 130.319 80.7275 130.272 80.8957 130.24L81.9523 135.239C81.6159 135.345 81.1428 135.465 80.533 135.602C79.9232 135.749 79.182 135.839 78.3094 135.87C76.6903 135.933 75.2709 135.718 74.0513 135.224C72.8423 134.73 71.9013 133.962 71.2284 132.921C70.5555 131.88 70.2244 130.566 70.2349 128.979V105.512ZM83.2832 135.539V111.316H89.7964V115.542H90.0487C90.4903 114.039 91.2315 112.903 92.2724 112.136C93.3132 111.358 94.5118 110.969 95.868 110.969C96.2045 110.969 96.5672 110.99 96.9562 111.032C97.3452 111.074 97.6869 111.132 97.9813 111.205V117.166C97.6659 117.072 97.2296 116.988 96.6723 116.914C96.1151 116.841 95.6052 116.804 95.1426 116.804C94.1543 116.804 93.2712 117.019 92.4932 117.45C91.7257 117.871 91.1159 118.46 90.6638 119.217C90.2222 119.974 90.0014 120.846 90.0014 121.835V135.539H83.2832ZM100.002 135.949C98.9613 135.949 98.0676 135.581 97.3211 134.845C96.5852 134.099 96.2172 133.205 96.2172 132.164C96.2172 131.134 96.5852 130.251 97.3211 129.515C98.0676 128.779 98.9613 128.411 100.002 128.411C101.011 128.411 101.895 128.779 102.652 129.515C103.409 130.251 103.787 131.134 103.787 132.164C103.787 132.858 103.608 133.494 103.251 134.072C102.904 134.64 102.447 135.097 101.879 135.444C101.311 135.781 100.686 135.949 100.002 135.949Z" fill="#9CA3AF"/>
        <circle cx="126.412" cy="122.412" r="16.0488" fill="#F97316"/>
        <path fill-rule="evenodd" clip-rule="evenodd" d="M121.278 115.884C124.203 112.959 128.945 112.959 131.87 115.884C134.795 118.809 134.795 123.551 131.87 126.476L126.574 131.772L121.278 126.476C118.354 123.551 118.354 118.809 121.278 115.884ZM126.574 123.32C127.756 123.32 128.714 122.362 128.714 121.18C128.714 119.998 127.756 119.04 126.574 119.04C125.392 119.04 124.434 119.998 124.434 121.18C124.434 122.362 125.392 123.32 126.574 123.32Z" fill="#111827"/>
    </g>
    <defs>
        <filter id="filter0_d_89_3745" x="0" y="0" width="211" height="211" filterUnits="userSpaceOnUse" color-interpolation-filters="sRGB">
            <feFlood flood-opacity="0" result="BackgroundImageFix"/>
            <feColorMatrix in="SourceAlpha" type="matrix" values="0 0 0 0 0 0 0 0 0 0 0 0 0 0 0 0 0 0 127 0" result="hardAlpha"/>
            <feOffset dy="4"/>
            <feGaussianBlur stdDeviation="32"/>
            <feComposite in2="hardAlpha" operator="out"/>
            <feColorMatrix type="matrix" values="0 0 0 0 0.595833 0 0 0 0 0.595833 0 0 0 0 0.595833 0 0 0 0.4 0"/>
            <feBlend mode="normal" in2="BackgroundImageFix" result="effect1_dropShadow_89_3745"/>
            <feBlend mode="normal" in="SourceGraphic" in2="effect1_dropShadow_89_3745" result="shape"/>
        </filter>
    </defs>
</svg>
