<svg width="256" height="256" viewBox="0 0 256 256" fill="none" xmlns="http://www.w3.org/2000/svg">
    <rect width="256" height="256" rx="64" fill="black"/>
    <path d="M35.574 121.411C30.8071 121.411 26.5591 120.584 22.8299 118.93C19.1008 117.244 16.1498 114.763 13.9772 111.488C11.837 108.18 10.7669 104.062 10.7669 99.1328C10.7669 94.9821 11.5289 91.4961 13.053 88.6749C14.5771 85.8537 16.6525 83.5838 19.2791 81.8651C21.9058 80.1464 24.8891 78.8493 28.2291 77.9738C31.6016 77.0982 35.1362 76.4821 38.833 76.1254C43.1783 75.6714 46.6805 75.2499 49.3395 74.8607C51.9986 74.4392 53.928 73.8231 55.1279 73.0124C56.3277 72.2017 56.9276 71.0018 56.9276 69.4129V69.121C56.9276 66.0404 55.9548 63.657 54.0091 61.9707C52.0959 60.2845 49.372 59.4414 45.8373 59.4414C42.1082 59.4414 39.141 60.2683 36.936 61.9221C34.7309 63.5435 33.2716 65.5864 32.5582 68.0509L13.3935 66.4944C14.3663 61.9545 16.2796 58.0308 19.1332 54.7232C21.9868 51.3831 25.6674 48.8213 30.1748 47.0378C34.7147 45.2219 39.9679 44.3139 45.9346 44.3139C50.0854 44.3139 54.0578 44.8003 57.8518 45.7731C61.6782 46.746 65.0669 48.2539 68.0178 50.2968C71.0012 52.3397 73.3522 54.9664 75.0709 58.1767C76.7895 61.3546 77.6489 65.1649 77.6489 69.6075V120H57.9977V109.639H57.414C56.2142 111.974 54.609 114.033 52.5985 115.817C50.588 117.568 48.1721 118.946 45.3509 119.951C42.5297 120.924 39.2708 121.411 35.574 121.411ZM41.5083 107.11C44.5565 107.11 47.2479 106.51 49.5827 105.31C51.9175 104.078 53.7497 102.424 55.0792 100.349C56.4088 98.2735 57.0735 95.9225 57.0735 93.2958V85.3673C56.425 85.7888 55.5332 86.178 54.3982 86.5347C53.2957 86.859 52.0472 87.167 50.6529 87.4589C49.2585 87.7183 47.8641 87.9615 46.4697 88.1885C45.0753 88.3831 43.8106 88.5614 42.6757 88.7235C40.2436 89.0803 38.1196 89.6477 36.3036 90.426C34.4877 91.2043 33.0771 92.2582 32.0718 93.5877C31.0666 94.8848 30.5639 96.5062 30.5639 98.4518C30.5639 101.273 31.5854 103.429 33.6283 104.921C35.7037 106.38 38.3304 107.11 41.5083 107.11ZM125.872 45.2867V60.852H79.7594V45.2867H125.872ZM90.3146 120V39.8875C90.3146 34.4721 91.3685 29.9809 93.4763 26.4138C95.6165 22.8468 98.535 20.1715 102.232 18.388C105.929 16.6045 110.128 15.7127 114.83 15.7127C118.008 15.7127 120.91 15.9559 123.537 16.4424C126.196 16.9288 128.174 17.3665 129.471 17.7557L125.774 33.3209C124.964 33.0615 123.958 32.8183 122.758 32.5913C121.591 32.3643 120.391 32.2508 119.159 32.2508C116.111 32.2508 113.987 32.9642 112.787 34.3911C111.587 35.7854 110.987 37.7473 110.987 40.2767V120H90.3146ZM161.873 121.459C154.188 121.459 147.572 119.903 142.027 116.79C136.515 113.644 132.267 109.202 129.283 103.462C126.3 97.6898 124.808 90.8638 124.808 82.9839C124.808 75.2985 126.3 68.5536 129.283 62.749C132.267 56.9445 136.466 52.4208 141.881 49.178C147.329 45.9353 153.717 44.3139 161.046 44.3139C165.975 44.3139 170.564 45.1084 174.812 46.6973C179.092 48.2539 182.821 50.6049 185.999 53.7503C189.21 56.8958 191.706 60.852 193.49 65.6189C195.273 70.3533 196.165 75.8984 196.165 82.2542V87.9453H133.077V75.1039H176.66C176.66 72.1206 176.011 69.4777 174.714 67.1754C173.417 64.873 171.618 63.0733 169.315 61.7762C167.045 60.4467 164.402 59.7819 161.387 59.7819C158.241 59.7819 155.452 60.5115 153.02 61.9707C150.621 63.3976 148.74 65.327 147.378 67.7591C146.016 70.1587 145.319 72.834 145.286 75.7849V87.9939C145.286 91.6907 145.967 94.8848 147.329 97.5763C148.724 100.268 150.685 102.343 153.215 103.802C155.744 105.262 158.744 105.991 162.214 105.991C164.516 105.991 166.624 105.667 168.537 105.018C170.45 104.37 172.088 103.397 173.45 102.1C174.812 100.803 175.849 99.2139 176.563 97.3331L195.727 98.5978C194.755 103.202 192.76 107.224 189.745 110.661C186.761 114.066 182.902 116.725 178.168 118.638C173.466 120.519 168.034 121.459 161.873 121.459ZM241.396 45.2867V60.852H196.403V45.2867H241.396ZM206.618 27.3867H227.339V97.0412C227.339 98.9545 227.631 100.446 228.215 101.516C228.798 102.554 229.609 103.284 230.647 103.705C231.717 104.127 232.949 104.337 234.343 104.337C235.316 104.337 236.289 104.256 237.262 104.094C238.235 103.9 238.981 103.754 239.499 103.656L242.758 119.076C241.721 119.4 240.261 119.773 238.381 120.195C236.5 120.649 234.214 120.924 231.522 121.021C226.528 121.216 222.151 120.551 218.389 119.027C214.66 117.503 211.758 115.136 209.682 111.926C207.607 108.715 206.585 104.662 206.618 99.7652V27.3867Z" fill="white"/>
    <path d="M54.0091 158.287V173.852H9.01577V158.287H54.0091ZM19.2305 140.387H39.9517V210.041C39.9517 211.954 40.2436 213.446 40.8273 214.516C41.411 215.554 42.2217 216.284 43.2594 216.705C44.3295 217.127 45.5617 217.337 46.9561 217.337C47.9289 217.337 48.9018 217.256 49.8746 217.094C50.8474 216.9 51.5933 216.754 52.1121 216.656L55.3711 232.076C54.3334 232.4 52.8741 232.773 50.9933 233.195C49.1125 233.649 46.8264 233.924 44.1349 234.021C39.141 234.216 34.7633 233.551 31.0017 232.027C27.2725 230.503 24.3703 228.136 22.2949 224.926C20.2195 221.715 19.198 217.662 19.2305 212.765V140.387ZM59.4759 233V158.287H79.5649V171.323H80.3431C81.7051 166.685 83.9912 163.183 87.2016 160.816C90.4119 158.416 94.1087 157.217 98.2918 157.217C99.3295 157.217 100.448 157.281 101.648 157.411C102.848 157.541 103.902 157.719 104.81 157.946V176.333C103.837 176.041 102.491 175.781 100.773 175.554C99.0539 175.327 97.4811 175.214 96.0543 175.214C93.0061 175.214 90.2822 175.879 87.8825 177.208C85.5153 178.505 83.6345 180.321 82.2401 182.656C80.8782 184.991 80.1972 187.682 80.1972 190.731V233H59.4759ZM111.043 234.265C107.832 234.265 105.076 233.13 102.774 230.86C100.504 228.557 99.3688 225.801 99.3688 222.591C99.3688 219.413 100.504 216.689 102.774 214.419C105.076 212.149 107.832 211.014 111.043 211.014C114.156 211.014 116.88 212.149 119.214 214.419C121.549 216.689 122.717 219.413 122.717 222.591C122.717 224.731 122.165 226.693 121.063 228.476C119.993 230.227 118.582 231.638 116.831 232.708C115.08 233.746 113.151 234.265 111.043 234.265Z" fill="#9CA3AF"/>
    <circle cx="192.5" cy="192.5" r="49.5" fill="#F97316"/>
    <path fill-rule="evenodd" clip-rule="evenodd" d="M209.334 172.366C218.355 181.387 218.355 196.013 209.334 205.034L193 221.368L176.666 205.034C167.645 196.013 167.645 181.387 176.666 172.366C185.687 163.345 200.313 163.345 209.334 172.366ZM193 195.3C196.645 195.3 199.6 192.345 199.6 188.7C199.6 185.055 196.645 182.1 193 182.1C189.355 182.1 186.4 185.055 186.4 188.7C186.4 192.345 189.355 195.3 193 195.3Z" fill="#111827"/>
</svg>
