<svg width="31" height="40" viewBox="0 0 31 40" fill="none" xmlns="http://www.w3.org/2000/svg">
<path d="M0.847826 15.2609C0.847826 7.30077 7.30077 0.847826 15.2609 0.847826C23.221 0.847826 29.6739 7.30076 29.6739 15.2609V15.9304C29.6739 19.6564 28.2947 23.2506 25.8021 26.0201L16.9692 35.8345C16.0562 36.8489 14.4655 36.8489 13.5525 35.8344L4.71961 26.0201C2.22703 23.2506 0.847826 19.6564 0.847826 15.9304V15.2609Z" fill="#F97316" stroke="#EA580C" stroke-width="1.69565"/>
<path d="M18.5464 7.07699C18.6532 7.14082 18.7358 7.2401 18.7808 7.35861C18.8258 7.47712 18.8304 7.60785 18.794 7.72946L16.8294 14.3126H20.4543C20.5609 14.3125 20.6651 14.3447 20.7541 14.405C20.8431 14.4653 20.9131 14.5512 20.9553 14.6521C20.9975 14.7529 21.0102 14.8643 20.9917 14.9725C20.9733 15.0807 20.9245 15.181 20.8514 15.2609L12.1245 24.8229C12.04 24.9155 11.9277 24.9758 11.8057 24.9941C11.6837 25.0124 11.5593 24.9876 11.4528 24.9237C11.3463 24.8597 11.2639 24.7605 11.219 24.6421C11.1742 24.5237 11.1696 24.3931 11.206 24.2716L13.1706 17.6874H9.54565C9.43912 17.6874 9.33491 17.6553 9.24589 17.595C9.15686 17.5346 9.08692 17.4487 9.04469 17.3479C9.00246 17.247 8.98979 17.1356 9.00825 17.0274C9.02672 16.9192 9.0755 16.819 9.14858 16.7391L17.8755 7.17711C17.9599 7.08464 18.0721 7.02431 18.1939 7.00593C18.3157 6.98755 18.4399 7.0122 18.5464 7.07587V7.07699Z" fill="white"/>
</svg>
