<svg width="31" height="40" viewBox="0 0 31 40" fill="none" xmlns="http://www.w3.org/2000/svg">
<path d="M0.847826 15.2609C0.847826 7.30077 7.30077 0.847826 15.2609 0.847826C23.221 0.847826 29.6739 7.30076 29.6739 15.2609V15.9304C29.6739 19.6564 28.2947 23.2506 25.8021 26.0201L16.9692 35.8345C16.0562 36.8489 14.4655 36.8489 13.5525 35.8344L4.71961 26.0201C2.22703 23.2506 0.847826 19.6564 0.847826 15.9304V15.2609Z" fill="#EC4899" stroke="#DB2777" stroke-width="1.69565"/>
<path d="M15 8.33334C14.2264 8.33334 13.4845 8.64063 12.9376 9.18762C12.3906 9.7346 12.0833 10.4765 12.0833 11.25H13.75C13.75 10.9185 13.8817 10.6005 14.1161 10.3661C14.3505 10.1317 14.6684 10 15 10C15.3315 10 15.6494 10.1317 15.8838 10.3661C16.1183 10.6005 16.25 10.9185 16.25 11.25C16.25 11.5815 16.1183 11.8995 15.8838 12.1339C15.6494 12.3683 15.3315 12.5 15 12.5C14.5416 12.5 14.1666 12.875 14.1666 13.3333V14.7917L6.99996 20.1667C6.86004 20.2716 6.75668 20.4179 6.70453 20.5849C6.65238 20.7518 6.65408 20.9309 6.70939 21.0969C6.7647 21.2628 6.87081 21.4071 7.0127 21.5094C7.15459 21.6116 7.32506 21.6667 7.49996 21.6667H22.5C22.6749 21.6667 22.8453 21.6116 22.9872 21.5094C23.1291 21.4071 23.2352 21.2628 23.2905 21.0969C23.3458 20.9309 23.3475 20.7518 23.2954 20.5849C23.2432 20.4179 23.1399 20.2716 23 20.1667L15.8333 14.7917V14.0417C16.4347 13.8624 16.9622 13.4939 17.3375 12.991C17.7128 12.4881 17.9159 11.8775 17.9166 11.25C17.9166 10.4765 17.6093 9.7346 17.0624 9.18762C16.5154 8.64063 15.7735 8.33334 15 8.33334ZM15 16.25L20 20H9.99996L15 16.25Z" fill="white"/>
</svg>
