<svg width="31" height="40" viewBox="0 0 31 40" fill="none" xmlns="http://www.w3.org/2000/svg">
<path d="M0.847826 15.2609C0.847826 7.30077 7.30077 0.847826 15.2609 0.847826C23.221 0.847826 29.6739 7.30076 29.6739 15.2609V15.9304C29.6739 19.6564 28.2947 23.2506 25.8021 26.0201L16.9692 35.8345C16.0562 36.8489 14.4655 36.8489 13.5525 35.8344L4.71961 26.0201C2.22703 23.2506 0.847826 19.6564 0.847826 15.9304V15.2609Z" fill="#EF4444" stroke="#DC2626" stroke-width="1.69565"/>
<path d="M16.0132 20H13.9866C13.9017 20 13.8203 19.9663 13.7603 19.9063C13.7003 19.8463 13.6666 19.7649 13.6666 19.68V17.6533C13.6666 17.5685 13.6328 17.4871 13.5728 17.4271C13.5128 17.367 13.4314 17.3333 13.3466 17.3333H11.3199C11.235 17.3333 11.1536 17.2996 11.0936 17.2396C11.0336 17.1796 10.9999 17.0982 10.9999 17.0133V14.9867C10.9999 14.9018 11.0336 14.8204 11.0936 14.7604C11.1536 14.7004 11.235 14.6667 11.3199 14.6667H13.3466C13.4314 14.6667 13.5128 14.6329 13.5728 14.5729C13.6328 14.5129 13.6666 14.4315 13.6666 14.3466V12.32C13.6666 12.2351 13.7003 12.1537 13.7603 12.0937C13.8203 12.0337 13.9017 12 13.9866 12H16.0132C16.0981 12 16.1795 12.0337 16.2395 12.0937C16.2995 12.1537 16.3332 12.2351 16.3332 12.32V14.3466C16.3332 14.4315 16.367 14.5129 16.427 14.5729C16.487 14.6329 16.5684 14.6667 16.6532 14.6667H18.6799C18.7648 14.6667 18.8462 14.7004 18.9062 14.7604C18.9662 14.8204 18.9999 14.9018 18.9999 14.9867V17.0133C18.9999 17.0982 18.9662 17.1796 18.9062 17.2396C18.8462 17.2996 18.7648 17.3333 18.6799 17.3333H16.6532C16.5684 17.3333 16.487 17.367 16.427 17.4271C16.367 17.4871 16.3332 17.5685 16.3332 17.6533V19.68C16.3332 19.7649 16.2995 19.8463 16.2395 19.9063C16.1795 19.9663 16.0981 20 16.0132 20Z" fill="white" stroke="white" stroke-width="1.5"/>
<path d="M15 24C19.4184 24 23 20.4184 23 16C23 11.5816 19.4184 8 15 8C10.5816 8 7 11.5816 7 16C7 20.4184 10.5816 24 15 24Z" stroke="white" stroke-width="2" stroke-linecap="round" stroke-linejoin="round"/>
</svg>
