<svg width="31" height="40" viewBox="0 0 31 40" fill="none" xmlns="http://www.w3.org/2000/svg">
<path d="M0.847826 15.2609C0.847826 7.30077 7.30077 0.847826 15.2609 0.847826C23.221 0.847826 29.6739 7.30076 29.6739 15.2609V15.9304C29.6739 19.6564 28.2947 23.2506 25.8021 26.0201L16.9692 35.8345C16.0562 36.8489 14.4655 36.8489 13.5525 35.8344L4.71961 26.0201C2.22703 23.2506 0.847826 19.6564 0.847826 15.9304V15.2609Z" fill="#8B5CF6" stroke="#6D28D9" stroke-width="1.69565"/>
<path d="M20.3914 15.9391V20.687C20.3914 21.0467 20.2575 21.3918 20.019 21.6462C19.7805 21.9006 19.457 22.0435 19.1197 22.0435C18.7824 22.0435 18.4589 21.9006 18.2204 21.6462C17.982 21.3918 17.848 21.0467 17.848 20.687V17.2957H16.5762V10.5131C16.5762 9.9734 16.7772 9.45584 17.135 9.07425C17.4927 8.69265 17.9779 8.47827 18.4838 8.47827H20.3914V15.9391ZM11.4893 15.2609C11.152 15.2609 10.8285 15.118 10.59 14.8636C10.3515 14.6092 10.2175 14.2641 10.2175 13.9044V9.15653C10.2175 8.97665 10.2845 8.80413 10.4038 8.67693C10.523 8.54973 10.6848 8.47827 10.8534 8.47827C11.022 8.47827 11.1838 8.54973 11.303 8.67693C11.4223 8.80413 11.4893 8.97665 11.4893 9.15653V11.8696H12.1251V9.15653C12.1251 8.97665 12.1921 8.80413 12.3114 8.67693C12.4306 8.54973 12.5924 8.47827 12.761 8.47827C12.9297 8.47827 13.0914 8.54973 13.2106 8.67693C13.3299 8.80413 13.3969 8.97665 13.3969 9.15653V11.8696H14.0327V9.15653C14.0327 8.97665 14.0997 8.80413 14.219 8.67693C14.3382 8.54973 14.5 8.47827 14.6686 8.47827C14.8373 8.47827 14.999 8.54973 15.1182 8.67693C15.2375 8.80413 15.3045 8.97665 15.3045 9.15653V13.9044C15.3045 14.2641 15.1705 14.6092 14.932 14.8636C14.6935 15.118 14.37 15.2609 14.0327 15.2609V20.687C14.0327 21.0467 13.8988 21.3918 13.6603 21.6462C13.4218 21.9006 13.0983 22.0435 12.761 22.0435C12.4237 22.0435 12.1002 21.9006 11.8618 21.6462C11.6233 21.3918 11.4893 21.0467 11.4893 20.687V15.2609Z" fill="white"/>
</svg>
