<svg width="31" height="40" viewBox="0 0 31 40" fill="none" xmlns="http://www.w3.org/2000/svg">
<path d="M0.847826 15.2609C0.847826 7.30077 7.30077 0.847826 15.2609 0.847826C23.221 0.847826 29.6739 7.30076 29.6739 15.2609V15.9304C29.6739 19.6564 28.2947 23.2506 25.8021 26.0201L16.9692 35.8345C16.0562 36.8489 14.4655 36.8489 13.5525 35.8344L4.71961 26.0201C2.22703 23.2506 0.847826 19.6564 0.847826 15.9304V15.2609Z" fill="#DC2626" stroke="#B91C1C" stroke-width="1.69565"/>
<path d="M21.75 22H23.25V23.5H6.75V22H8.25V9.25C8.25 9.05109 8.32902 8.86032 8.46967 8.71967C8.61032 8.57902 8.80109 8.5 9 8.5H21C21.1989 8.5 21.3897 8.57902 21.5303 8.71967C21.671 8.86032 21.75 9.05109 21.75 9.25V22ZM14.25 13H12.75V14.5H14.25V16H15.75V14.5H17.25V13H15.75V11.5H14.25V13ZM16.5 22H18V17.5H12V22H13.5V19H16.5V22Z" fill="white"/>
</svg>
