<svg width="31" height="40" viewBox="0 0 31 40" fill="none" xmlns="http://www.w3.org/2000/svg">
<path d="M0.847826 15.2609C0.847826 7.30077 7.30077 0.847826 15.2609 0.847826C23.221 0.847826 29.6739 7.30076 29.6739 15.2609V15.9304C29.6739 19.6564 28.2947 23.2506 25.8021 26.0201L16.9692 35.8345C16.0562 36.8489 14.4655 36.8489 13.5525 35.8344L4.71961 26.0201C2.22703 23.2506 0.847826 19.6564 0.847826 15.9304V15.2609Z" fill="#3B82F6" stroke="#2563EB" stroke-width="1.69565"/>
<path d="M19.4583 12.125L18.9437 11.0365L17.875 10.5417L18.9437 10.0469L19.4583 8.95834L19.9531 10.0469L21.0416 10.5417L19.9531 11.0365L19.4583 12.125ZM21.8333 16.0833C21.3979 16.0833 21.025 15.9282 20.7147 15.6178C20.4049 15.308 20.25 14.9354 20.25 14.5C20.25 13.8799 20.4249 13.3223 20.7748 12.8272C21.1242 12.3327 21.477 11.8347 21.8333 11.3333C22.1895 11.8347 22.5424 12.3327 22.8918 12.8272C23.2417 13.3223 23.4166 13.8799 23.4166 14.5C23.4166 14.9354 23.2617 15.308 22.9519 15.6178C22.6416 15.9282 22.2687 16.0833 21.8333 16.0833ZM17.875 14.2229L13.3031 12.5208H10.1562C10.3805 11.8347 10.7534 11.2507 11.2748 10.7689C11.7958 10.2876 12.4125 9.97432 13.125 9.82918V8.16668H11.9375V6.58334H16.2916C16.7138 6.58334 17.126 6.65248 17.5282 6.79076C17.9309 6.92957 18.3038 7.13091 18.6468 7.3948L17.5187 8.52293C17.334 8.41737 17.1392 8.33161 16.9345 8.26564C16.7302 8.19966 16.5159 8.16668 16.2916 8.16668H14.7083V9.82918C15.6319 10.0139 16.3906 10.4691 16.9843 11.1948C17.5781 11.9205 17.875 12.7583 17.875 13.7083V14.2229ZM17.0833 22.8125L11.5416 21.2688V13.7083H13.0854L17.9937 15.5292C18.4423 15.6875 18.7986 15.9646 19.0625 16.3604C19.3263 16.7563 19.4583 17.1917 19.4583 17.6667H17.875C17.5187 17.6667 17.1593 17.6566 16.7967 17.6366C16.4336 17.6171 16.0805 17.5479 15.7375 17.4292L14.1541 16.9146L13.9166 17.6667L15.1635 18.1219C15.4934 18.2538 15.8333 18.343 16.1832 18.3895C16.5326 18.4354 16.8854 18.4583 17.2416 18.4583H21.0416C21.6354 18.4583 22.1795 18.5903 22.674 18.8542C23.1691 19.1181 23.4166 19.5139 23.4166 20.0417V20.8333L17.0833 22.8125ZM6.79163 22.4167V13.7083H9.95829V22.4167H6.79163Z" fill="white"/>
</svg>
