<svg width="31" height="40" viewBox="0 0 31 40" fill="none" xmlns="http://www.w3.org/2000/svg">
<path d="M0.847826 15.2609C0.847826 7.30077 7.30077 0.847826 15.2609 0.847826C23.221 0.847826 29.6739 7.30076 29.6739 15.2609V15.9304C29.6739 19.6564 28.2947 23.2506 25.8021 26.0201L16.9692 35.8345C16.0562 36.8489 14.4655 36.8489 13.5525 35.8344L4.71961 26.0201C2.22703 23.2506 0.847826 19.6564 0.847826 15.9304V15.2609Z" fill="#24389C" stroke="#24389C" stroke-width="1.69565"/>
<path d="M22.5163 17.0747C22.1787 18.2829 21.5308 19.3817 20.6368 20.2617C19.7429 21.1417 18.6342 21.7723 17.4209 22.0907C16.2077 22.4092 14.9322 22.4044 13.7213 22.0768C12.5105 21.7493 11.4065 21.1104 10.5192 20.2237C9.63191 19.3371 8.99219 18.2335 8.6637 17.0228C8.3352 15.8121 8.32939 14.5365 8.64683 13.3229C8.96427 12.1093 9.59391 10.9999 10.4731 10.1052C11.3523 9.21046 12.4504 8.56153 13.6582 8.22297C13.7467 8.19447 13.8408 8.18815 13.9323 8.20456C14.0238 8.22097 14.1099 8.25961 14.183 8.31709C14.2561 8.37456 14.3139 8.4491 14.3514 8.53417C14.3889 8.61924 14.405 8.71222 14.3982 8.80494C14.398 8.84893 14.3907 8.8926 14.3766 8.93427C14.0916 9.96311 14.0846 11.0491 14.3562 12.0816C14.6279 13.114 15.1685 14.0559 15.923 14.8112C16.6775 15.5665 17.6188 16.1081 18.6508 16.3808C19.6829 16.6535 20.7689 16.6475 21.7979 16.3634L21.9559 16.3347C22.0809 16.3337 22.2029 16.373 22.3038 16.4468C22.4048 16.5205 22.4793 16.6248 22.5163 16.7442C22.5524 16.8514 22.5524 16.9675 22.5163 17.0747Z" fill="white"/>
</svg>
