<svg width="31" height="40" viewBox="0 0 31 40" fill="none" xmlns="http://www.w3.org/2000/svg">
<path d="M0.847826 15.2609C0.847826 7.30077 7.30077 0.847826 15.2609 0.847826C23.221 0.847826 29.6739 7.30076 29.6739 15.2609V15.9304C29.6739 19.6564 28.2947 23.2506 25.8021 26.0201L16.9692 35.8345C16.0562 36.8489 14.4655 36.8489 13.5525 35.8344L4.71961 26.0201C2.22703 23.2506 0.847826 19.6564 0.847826 15.9304V15.2609Z" fill="#10B981" stroke="#00A46D" stroke-width="1.69565"/>
<path d="M14.9783 22.7147L13.9538 21.7821C10.3153 18.4826 7.91309 16.2995 7.91309 13.6359C7.91309 11.4527 9.62287 9.75 11.799 9.75C13.0283 9.75 14.2082 10.3223 14.9783 11.2196C15.7484 10.3223 16.9283 9.75 18.1576 9.75C20.3337 9.75 22.0435 11.4527 22.0435 13.6359C22.0435 16.2995 19.6413 18.4826 16.0028 21.7821L14.9783 22.7147Z" fill="white"/>
</svg>
