<svg width="31" height="40" viewBox="0 0 31 40" fill="none" xmlns="http://www.w3.org/2000/svg">
<path d="M0.847826 15.2609C0.847826 7.30077 7.30077 0.847826 15.2609 0.847826C23.221 0.847826 29.6739 7.30076 29.6739 15.2609V15.9304C29.6739 19.6564 28.2947 23.2506 25.8021 26.0201L16.9692 35.8345C16.0562 36.8489 14.4655 36.8489 13.5525 35.8344L4.71961 26.0201C2.22703 23.2506 0.847826 19.6564 0.847826 15.9304V15.2609Z" fill="#F97316" stroke="#EA580C" stroke-width="1.69565"/>
<g clip-path="url(#clip0_134_5084)">
<path d="M15.993 7.85523C15.9134 7.76074 15.8138 7.68472 15.7012 7.63255C15.5886 7.58039 15.4658 7.55334 15.3415 7.55334C15.2171 7.55334 15.0943 7.58039 14.9817 7.63255C14.8691 7.68472 14.7695 7.76074 14.6899 7.85523C13.4563 9.32121 10.9908 11.0861 9.5705 11.8703C9.45555 11.9337 9.35708 12.0227 9.28286 12.1302C9.20865 12.2378 9.16073 12.3609 9.1429 12.4899L8.02638 20.5184H7.63101C7.406 20.5184 7.1902 20.6068 7.03109 20.7643C6.87198 20.9218 6.78259 21.1353 6.78259 21.358C6.78259 21.5807 6.87198 21.7942 7.03109 21.9517C7.1902 22.1092 7.406 22.1976 7.63101 22.1976H22.8907C23.1157 22.1976 23.3315 22.1092 23.4906 21.9517C23.6497 21.7942 23.7391 21.5807 23.7391 21.358C23.7391 21.1353 23.6497 20.9218 23.4906 20.7643C23.3315 20.6068 23.1157 20.5184 22.8907 20.5184H22.6582L21.54 12.4899C21.5224 12.3611 21.4747 12.238 21.4008 12.1305C21.3269 12.0229 21.2287 11.9339 21.1141 11.8703C19.6938 11.0861 17.2283 9.31953 15.993 7.85523ZM13.2798 20.5184C13.9704 19.4554 14.6678 18.1389 15.3194 16.3119C15.9201 17.9894 16.5818 19.2925 17.3658 20.5184H13.2798Z" fill="white"/>
</g>
<defs>
<clipPath id="clip0_134_5084">
<rect width="16.9565" height="16.9565" fill="white" transform="translate(6.78259 6.78262)"/>
</clipPath>
</defs>
</svg>
