<svg width="31" height="40" viewBox="0 0 31 40" fill="none" xmlns="http://www.w3.org/2000/svg">
<path d="M0.847826 15.2609C0.847826 7.30077 7.30077 0.847826 15.2609 0.847826C23.221 0.847826 29.6739 7.30076 29.6739 15.2609V15.9304C29.6739 19.6564 28.2947 23.2506 25.8021 26.0201L16.9692 35.8345C16.0562 36.8489 14.4655 36.8489 13.5525 35.8344L4.71961 26.0201C2.22703 23.2506 0.847826 19.6564 0.847826 15.9304V15.2609Z" fill="#F59E0B" stroke="#FBBF24" stroke-width="1.69565"/>
<path d="M15.0336 8.07399L16.8 9.39999H18L19.7676 8.07519C19.8264 8.03147 19.8961 8.0049 19.9691 7.99843C20.042 7.99196 20.1153 8.00585 20.1809 8.03855C20.2464 8.07126 20.3016 8.12149 20.3403 8.18368C20.3789 8.24586 20.3996 8.31755 20.4 8.39079V12.4C20.4 13.2664 19.7736 13.8208 19.2 14.2876V19L20.16 21.88L21.0072 22.3036C21.1854 22.3928 21.3353 22.5298 21.44 22.6994C21.5447 22.8689 21.6001 23.0643 21.6 23.2636C21.6 23.56 21.36 23.8 21.0636 23.8H11.1C9.62042 23.8 8.40002 22.6 8.40002 21.0556C8.40002 18.4516 8.94362 16.516 9.29402 15.214C9.46922 14.5624 9.64202 14.074 9.76562 13.7368C9.83522 13.5484 9.90362 13.3732 9.99602 13.198C10.5348 12.172 12.0888 12.946 11.6064 13.9996C11.5498 14.1249 11.4966 14.2518 11.4468 14.38C11.3376 14.6584 11.19 15.0916 11.0316 15.6808C10.7364 16.7788 10.4088 18.4252 10.2696 20.6404C10.7112 18.1684 13.176 15.6868 15.162 13.9096C14.748 13.5184 14.4012 13.0456 14.4012 12.4V8.38959C14.4012 8.06559 14.7732 7.87959 15.0336 8.07399Z" fill="white"/>
</svg>
