<svg width="31" height="40" viewBox="0 0 31 40" fill="none" xmlns="http://www.w3.org/2000/svg">
<path d="M0.847826 15.2609C0.847826 7.30077 7.30077 0.847826 15.2609 0.847826C23.221 0.847826 29.6739 7.30076 29.6739 15.2609V15.9304C29.6739 19.6564 28.2947 23.2506 25.8021 26.0201L16.9692 35.8345C16.0562 36.8489 14.4655 36.8489 13.5525 35.8344L4.71961 26.0201C2.22703 23.2506 0.847826 19.6564 0.847826 15.9304V15.2609Z" fill="#0EA5E9" stroke="#0284C7" stroke-width="1.69565"/>
<path d="M21.2066 14.2011C21.2066 14.0606 21.1508 13.9258 21.0514 13.8264C20.9521 13.727 20.8173 13.6712 20.6768 13.6712H9.01915C8.87861 13.6712 8.74383 13.727 8.64446 13.8264C8.54509 13.9258 8.48926 14.0606 8.48926 14.2011C8.48963 15.3783 8.81678 16.5322 9.43425 17.5344C10.0517 18.5367 10.9353 19.3478 11.9865 19.8775L11.7613 21.4672C11.7384 21.6177 11.7483 21.7713 11.7904 21.9176C11.8325 22.0639 11.9058 22.1993 12.0053 22.3145C12.1047 22.4297 12.228 22.5219 12.3666 22.5849C12.5051 22.6479 12.6557 22.6801 12.8079 22.6793H16.888C17.0402 22.6801 17.1908 22.6479 17.3294 22.5849C17.4679 22.5219 17.5912 22.4297 17.6906 22.3145C17.7901 22.1993 17.8634 22.0639 17.9055 21.9176C17.9476 21.7713 17.9575 21.6177 17.9346 21.4672L17.7094 19.8775C18.7606 19.3478 19.6442 18.5367 20.2617 17.5344C20.8791 16.5322 21.2063 15.3783 21.2066 14.2011ZM12.8079 21.6196L13 20.2882C14.2054 20.6502 15.4905 20.6502 16.6959 20.2882L16.888 21.6196H12.8079ZM10.3439 12.6114H19.352C19.4223 12.6114 19.4897 12.5835 19.5394 12.5338C19.5891 12.4841 19.617 12.4167 19.617 12.3465V9.43207C19.617 9.15099 19.5053 8.88143 19.3066 8.68269C19.1078 8.48394 18.8383 8.37228 18.5572 8.37228H11.1387C10.8576 8.37228 10.5881 8.48394 10.3893 8.68269C10.1906 8.88143 10.0789 9.15099 10.0789 9.43207V12.3465C10.0789 12.4167 10.1068 12.4841 10.1565 12.5338C10.2062 12.5835 10.2736 12.6114 10.3439 12.6114ZM12.1985 9.96196H13.2583C13.3988 9.96196 13.5336 10.0178 13.633 10.1172C13.7323 10.2165 13.7882 10.3513 13.7882 10.4918C13.7882 10.6324 13.7323 10.7672 13.633 10.8665C13.5336 10.9659 13.3988 11.0217 13.2583 11.0217H12.1985C12.058 11.0217 11.9232 10.9659 11.8238 10.8665C11.7244 10.7672 11.6686 10.6324 11.6686 10.4918C11.6686 10.3513 11.7244 10.2165 11.8238 10.1172C11.9232 10.0178 12.058 9.96196 12.1985 9.96196Z" fill="white"/>
</svg>
