<svg width="46" height="84" viewBox="0 0 46 84" fill="none" xmlns="http://www.w3.org/2000/svg">
    <g filter="url(#filter0_d_1_2458)">
        <path d="M5 49C5 39.0589 13.0589 31 23 31C32.9411 31 41 39.0589 41 49V49.7897C41 54.4316 39.2818 58.9091 36.1766 62.3594L25.7583 73.9352C24.2842 75.5732 21.7158 75.5732 20.2417 73.9352L9.82343 62.3594C6.7182 58.9091 5 54.4316 5 49.7897V49Z" fill="#EC4899"/>
        <path d="M6 49C6 39.6112 13.6112 32 23 32C32.3888 32 40 39.6112 40 49V49.7897C40 54.1845 38.3732 58.4238 35.4333 61.6904L25.015 73.2663C23.9381 74.4628 22.0619 74.4628 20.985 73.2663L10.5667 61.6904C7.62676 58.4238 6 54.1845 6 49.7897V49Z" stroke="#F472B6" stroke-width="2"/>
    </g>
    <rect width="46" height="27" rx="4" fill="#EC4899"/>
    <path d="M15.0941 12.0597C15.0231 11.8295 14.9251 11.6236 14.8001 11.4418C14.6779 11.2571 14.5302 11.0994 14.3569 10.9688C14.1864 10.8381 13.9904 10.7401 13.7688 10.6747C13.5472 10.6065 13.3058 10.5724 13.0444 10.5724C12.5756 10.5724 12.158 10.6903 11.7915 10.9261C11.4251 11.1619 11.1367 11.5085 10.9265 11.9659C10.7191 12.4205 10.6154 12.9744 10.6154 13.6278C10.6154 14.2869 10.7191 14.8452 10.9265 15.3026C11.1339 15.7599 11.4222 16.108 11.7915 16.3466C12.1609 16.5824 12.5898 16.7003 13.0785 16.7003C13.5217 16.7003 13.9052 16.6151 14.229 16.4446C14.5558 16.2741 14.8072 16.0327 14.9833 15.7202C15.1594 15.4048 15.2475 15.0355 15.2475 14.6122L15.6055 14.6676H13.2362V13.4318H16.7773V14.4801C16.7773 15.2273 16.6183 15.8736 16.3001 16.419C15.9819 16.9645 15.5444 17.3849 14.9876 17.6804C14.4308 17.973 13.7915 18.1193 13.07 18.1193C12.266 18.1193 11.56 17.9389 10.9521 17.5781C10.3469 17.2145 9.87393 16.6989 9.53303 16.0312C9.19496 15.3608 9.02592 14.5653 9.02592 13.6449C9.02592 12.9403 9.12536 12.3111 9.32422 11.7571C9.52592 11.2031 9.80717 10.733 10.168 10.3466C10.5288 9.95739 10.9521 9.66193 11.4379 9.46023C11.9237 9.25568 12.4521 9.15341 13.0231 9.15341C13.506 9.15341 13.9563 9.22443 14.3739 9.36648C14.7915 9.50568 15.1623 9.70455 15.4862 9.96307C15.8129 10.2216 16.0813 10.5284 16.2915 10.8835C16.5018 11.2386 16.6396 11.6307 16.7049 12.0597H15.0941ZM18.6481 18V11.4545H20.1907V18H18.6481ZM19.4237 10.5256C19.1793 10.5256 18.9691 10.4446 18.793 10.2827C18.6168 10.1179 18.5288 9.92045 18.5288 9.69034C18.5288 9.45739 18.6168 9.25994 18.793 9.09801C18.9691 8.93324 19.1793 8.85085 19.4237 8.85085C19.6708 8.85085 19.881 8.93324 20.0543 9.09801C20.2305 9.25994 20.3185 9.45739 20.3185 9.69034C20.3185 9.92045 20.2305 10.1179 20.0543 10.2827C19.881 10.4446 19.6708 10.5256 19.4237 10.5256ZM22.7358 20.4545C22.5256 20.4545 22.331 20.4375 22.152 20.4034C21.9759 20.3722 21.8352 20.3352 21.7301 20.2926L22.0881 19.0909C22.3125 19.1563 22.5128 19.1875 22.6889 19.1847C22.8651 19.1818 23.0199 19.1264 23.1534 19.0185C23.2898 18.9134 23.4048 18.7372 23.4986 18.4901L23.6307 18.1364L21.2571 11.4545H22.8935L24.402 16.3977H24.4702L25.983 11.4545H27.6236L25.0028 18.7926C24.8807 19.1392 24.7188 19.4361 24.517 19.6832C24.3153 19.9332 24.0682 20.1236 23.7756 20.2543C23.4858 20.3878 23.1392 20.4545 22.7358 20.4545ZM33.8643 13.1847L32.4581 13.3381C32.4183 13.196 32.3487 13.0625 32.2493 12.9375C32.1527 12.8125 32.022 12.7116 31.8572 12.6349C31.6925 12.5582 31.4908 12.5199 31.2521 12.5199C30.9311 12.5199 30.6612 12.5895 30.4425 12.7287C30.2266 12.8679 30.12 13.0483 30.1229 13.2699C30.12 13.4602 30.1896 13.6151 30.3317 13.7344C30.4766 13.8537 30.7152 13.9517 31.0476 14.0284L32.1641 14.267C32.7834 14.4006 33.2436 14.6122 33.5447 14.902C33.8487 15.1918 34.0021 15.571 34.005 16.0398C34.0021 16.4517 33.8814 16.8153 33.6428 17.1307C33.407 17.4432 33.0788 17.6875 32.6584 17.8636C32.2379 18.0398 31.755 18.1278 31.2095 18.1278C30.4084 18.1278 29.7635 17.9602 29.2749 17.625C28.7862 17.2869 28.495 16.8168 28.4013 16.2145L29.9055 16.0696C29.9737 16.3651 30.1186 16.5881 30.3402 16.7386C30.5618 16.8892 30.8501 16.9645 31.2053 16.9645C31.5717 16.9645 31.8658 16.8892 32.0874 16.7386C32.3118 16.5881 32.424 16.402 32.424 16.1804C32.424 15.9929 32.3516 15.8381 32.2067 15.7159C32.0646 15.5937 31.843 15.5 31.5419 15.4347L30.4254 15.2003C29.7976 15.0696 29.3331 14.8494 29.032 14.5398C28.7308 14.2273 28.5817 13.8324 28.5845 13.3551C28.5817 12.9517 28.6911 12.6023 28.9126 12.3068C29.1371 12.0085 29.4482 11.7784 29.8459 11.6165C30.2464 11.4517 30.7081 11.3693 31.2308 11.3693C31.9979 11.3693 32.6016 11.5327 33.0419 11.8594C33.4851 12.1861 33.7592 12.6278 33.8643 13.1847ZM35.277 18V11.4545H36.8196V18H35.277ZM36.0526 10.5256C35.8082 10.5256 35.598 10.4446 35.4219 10.2827C35.2457 10.1179 35.1577 9.92045 35.1577 9.69034C35.1577 9.45739 35.2457 9.25994 35.4219 9.09801C35.598 8.93324 35.8082 8.85085 36.0526 8.85085C36.2997 8.85085 36.5099 8.93324 36.6832 9.09801C36.8594 9.25994 36.9474 9.45739 36.9474 9.69034C36.9474 9.92045 36.8594 10.1179 36.6832 10.2827C36.5099 10.4446 36.2997 10.5256 36.0526 10.5256Z" fill="white"/>
    <path d="M23 42.3334C22.2265 42.3334 21.4846 42.6407 20.9376 43.1876C20.3906 43.7346 20.0834 44.4765 20.0834 45.25H21.75C21.75 44.9185 21.8817 44.6006 22.1161 44.3662C22.3506 44.1317 22.6685 44 23 44C23.3315 44 23.6495 44.1317 23.8839 44.3662C24.1183 44.6006 24.25 44.9185 24.25 45.25C24.25 45.5816 24.1183 45.8995 23.8839 46.1339C23.6495 46.3683 23.3315 46.5 23 46.5C22.5417 46.5 22.1667 46.875 22.1667 47.3334V48.7917L15 54.1667C14.8601 54.2716 14.7567 54.418 14.7046 54.5849C14.6524 54.7518 14.6541 54.931 14.7095 55.0969C14.7648 55.2628 14.8709 55.4071 15.0128 55.5094C15.1546 55.6117 15.3251 55.6667 15.5 55.6667H30.5C30.6749 55.6667 30.8454 55.6117 30.9873 55.5094C31.1292 55.4071 31.2353 55.2628 31.2906 55.0969C31.3459 54.931 31.3476 54.7518 31.2954 54.5849C31.2433 54.418 31.1399 54.2716 31 54.1667L23.8334 48.7917V48.0417C24.4347 47.8624 24.9622 47.494 25.3375 46.991C25.7128 46.4881 25.916 45.8776 25.9167 45.25C25.9167 44.4765 25.6094 43.7346 25.0624 43.1876C24.5154 42.6407 23.7736 42.3334 23 42.3334ZM23 50.25L28 54H18L23 50.25Z" fill="white"/>
    <defs>
        <filter id="filter0_d_1_2458" x="1" y="31" width="44" height="52.1637" filterUnits="userSpaceOnUse" color-interpolation-filters="sRGB">
            <feFlood flood-opacity="0" result="BackgroundImageFix"/>
            <feColorMatrix in="SourceAlpha" type="matrix" values="0 0 0 0 0 0 0 0 0 0 0 0 0 0 0 0 0 0 127 0" result="hardAlpha"/>
            <feOffset dy="4"/>
            <feGaussianBlur stdDeviation="2"/>
            <feComposite in2="hardAlpha" operator="out"/>
            <feColorMatrix type="matrix" values="0 0 0 0 0.807407 0 0 0 0 0.772083 0 0 0 0 0.908333 0 0 0 1 0"/>
            <feBlend mode="normal" in2="BackgroundImageFix" result="effect1_dropShadow_1_2458"/>
            <feBlend mode="normal" in="SourceGraphic" in2="effect1_dropShadow_1_2458" result="shape"/>
        </filter>
    </defs>
</svg>
