<svg width="75" height="83" viewBox="0 0 75 83" fill="none" xmlns="http://www.w3.org/2000/svg">
    <rect width="75" height="27" rx="4" fill="#4338CA"/>
    <path d="M9.16353 18V9.27273H10.7445V13.2827H10.851L14.2559 9.27273H16.1863L12.8113 13.1889L16.2161 18H14.3155L11.7118 14.2585L10.7445 15.4006V18H9.16353ZM19.5911 18.1278C18.9519 18.1278 18.3979 17.9872 17.9292 17.706C17.4604 17.4247 17.0968 17.0312 16.8382 16.5256C16.5826 16.0199 16.4547 15.429 16.4547 14.7528C16.4547 14.0767 16.5826 13.4844 16.8382 12.9759C17.0968 12.4673 17.4604 12.0724 17.9292 11.7912C18.3979 11.5099 18.9519 11.3693 19.5911 11.3693C20.2303 11.3693 20.7843 11.5099 21.253 11.7912C21.7218 12.0724 22.084 12.4673 22.3397 12.9759C22.5982 13.4844 22.7275 14.0767 22.7275 14.7528C22.7275 15.429 22.5982 16.0199 22.3397 16.5256C22.084 17.0312 21.7218 17.4247 21.253 17.706C20.7843 17.9872 20.2303 18.1278 19.5911 18.1278ZM19.5996 16.892C19.9462 16.892 20.236 16.7969 20.4689 16.6065C20.7019 16.4134 20.8752 16.1548 20.9888 15.831C21.1053 15.5071 21.1635 15.1463 21.1635 14.7486C21.1635 14.348 21.1053 13.9858 20.9888 13.6619C20.8752 13.3352 20.7019 13.0753 20.4689 12.8821C20.236 12.6889 19.9462 12.5923 19.5996 12.5923C19.2445 12.5923 18.949 12.6889 18.7132 12.8821C18.4803 13.0753 18.3056 13.3352 18.1891 13.6619C18.0755 13.9858 18.0186 14.348 18.0186 14.7486C18.0186 15.1463 18.0755 15.5071 18.1891 15.831C18.3056 16.1548 18.4803 16.4134 18.7132 16.6065C18.949 16.7969 19.2445 16.892 19.5996 16.892ZM25.5794 14.1648V18H24.0368V11.4545H25.5112V12.5668H25.5879C25.7385 12.2003 25.9785 11.9091 26.3081 11.6932C26.6404 11.4773 27.051 11.3693 27.5396 11.3693C27.9913 11.3693 28.3848 11.4659 28.72 11.6591C29.0581 11.8523 29.3194 12.1321 29.5041 12.4986C29.6916 12.8651 29.7839 13.3097 29.7811 13.8324V18H28.2385V14.071C28.2385 13.6335 28.1248 13.2912 27.8975 13.044C27.6731 12.7969 27.362 12.6733 26.9643 12.6733C26.6944 12.6733 26.4544 12.733 26.2441 12.8523C26.0368 12.9687 25.8734 13.1378 25.7541 13.3594C25.6376 13.581 25.5794 13.8494 25.5794 14.1648ZM35.5211 15.2472V11.4545H37.0637V18H35.568V16.8366H35.4998C35.3521 17.2031 35.1092 17.5028 34.7711 17.7358C34.4359 17.9687 34.0225 18.0852 33.5311 18.0852C33.1021 18.0852 32.7228 17.9901 32.3933 17.7997C32.0666 17.6065 31.8109 17.3267 31.6262 16.9602C31.4416 16.5909 31.3493 16.1449 31.3493 15.6222V11.4545H32.8919V15.3835C32.8919 15.7983 33.0055 16.1278 33.2328 16.3722C33.46 16.6165 33.7583 16.7386 34.1277 16.7386C34.3549 16.7386 34.5751 16.6832 34.7882 16.5724C35.0012 16.4616 35.176 16.2969 35.3123 16.0781C35.4515 15.8565 35.5211 15.5795 35.5211 15.2472ZM38.65 18V11.4545H40.1245V12.5668H40.2012C40.3375 12.1918 40.5634 11.8991 40.8787 11.6889C41.1941 11.4759 41.5705 11.3693 42.008 11.3693C42.4512 11.3693 42.8248 11.4773 43.1287 11.6932C43.4355 11.9062 43.6515 12.1974 43.7765 12.5668H43.8446C43.9895 12.2031 44.2338 11.9134 44.5776 11.6974C44.9242 11.4787 45.3347 11.3693 45.8091 11.3693C46.4114 11.3693 46.9029 11.5597 47.2836 11.9403C47.6642 12.321 47.8546 12.8764 47.8546 13.6065V18H46.3077V13.8452C46.3077 13.4389 46.1998 13.142 45.9838 12.9545C45.7679 12.7642 45.5037 12.669 45.1912 12.669C44.8191 12.669 44.5279 12.7855 44.3176 13.0185C44.1103 13.2486 44.0066 13.5483 44.0066 13.9176V18H42.4938V13.7812C42.4938 13.4432 42.3915 13.1733 42.187 12.9716C41.9853 12.7699 41.7211 12.669 41.3944 12.669C41.1728 12.669 40.9711 12.7259 40.7892 12.8395C40.6074 12.9503 40.4625 13.108 40.3546 13.3125C40.2466 13.5142 40.1926 13.75 40.1926 14.0199V18H38.65ZM53.5914 15.2472V11.4545H55.1341V18H53.6383V16.8366H53.5701C53.4224 17.2031 53.1795 17.5028 52.8414 17.7358C52.5062 17.9687 52.0929 18.0852 51.6014 18.0852C51.1724 18.0852 50.7931 17.9901 50.4636 17.7997C50.1369 17.6065 49.8812 17.3267 49.6966 16.9602C49.5119 16.5909 49.4196 16.1449 49.4196 15.6222V11.4545H50.9622V15.3835C50.9622 15.7983 51.0758 16.1278 51.3031 16.3722C51.5304 16.6165 51.8287 16.7386 52.198 16.7386C52.4252 16.7386 52.6454 16.6832 52.8585 16.5724C53.0716 16.4616 53.2463 16.2969 53.3826 16.0781C53.5218 15.8565 53.5914 15.5795 53.5914 15.2472ZM56.7203 18V11.4545H58.1948V12.5668H58.2715C58.4078 12.1918 58.6337 11.8991 58.949 11.6889C59.2644 11.4759 59.6408 11.3693 60.0783 11.3693C60.5215 11.3693 60.8951 11.4773 61.199 11.6932C61.5059 11.9062 61.7218 12.1974 61.8468 12.5668H61.915C62.0598 12.2031 62.3042 11.9134 62.6479 11.6974C62.9945 11.4787 63.405 11.3693 63.8794 11.3693C64.4817 11.3693 64.9732 11.5597 65.3539 11.9403C65.7346 12.321 65.9249 12.8764 65.9249 13.6065V18H64.378V13.8452C64.378 13.4389 64.2701 13.142 64.0542 12.9545C63.8382 12.7642 63.574 12.669 63.2615 12.669C62.8894 12.669 62.5982 12.7855 62.388 13.0185C62.1806 13.2486 62.0769 13.5483 62.0769 13.9176V18H60.5641V13.7812C60.5641 13.4432 60.4618 13.1733 60.2573 12.9716C60.0556 12.7699 59.7914 12.669 59.4647 12.669C59.2431 12.669 59.0414 12.7259 58.8596 12.8395C58.6777 12.9503 58.5328 13.108 58.4249 13.3125C58.3169 13.5142 58.263 13.75 58.263 14.0199V18H56.7203Z" fill="white"/>
    <path d="M39.9988 31.001C38.5379 32.1697 36.4621 32.1697 35.0012 31.001L30 27L45 27L39.9988 31.001Z" fill="#4338CA"/>
    <rect opacity="0.5" x="13.5" y="35" width="48" height="48" rx="24" fill="white"/>
    <rect x="19.5" y="41" width="36" height="36" rx="18" fill="white"/>
    <rect x="25.5" y="47" width="24" height="24" rx="12" fill="#4338CA"/>
</svg>
