<svg width="96" height="84" viewBox="0 0 96 84" fill="none" xmlns="http://www.w3.org/2000/svg">
    <g filter="url(#filter0_d_1_2458)">
        <path d="M30 49C30 39.0589 38.0589 31 48 31C57.9411 31 66 39.0589 66 49V49.7897C66 54.4316 64.2818 58.9091 61.1766 62.3594L50.7583 73.9352C49.2842 75.5732 46.7158 75.5732 45.2417 73.9352L34.8234 62.3594C31.7182 58.9091 30 54.4316 30 49.7897V49Z" fill="#10B981"/>
        <path d="M31 49C31 39.6112 38.6112 32 48 32C57.3888 32 65 39.6112 65 49V49.7897C65 54.1845 63.3732 58.4238 60.4333 61.6904L50.015 73.2663C48.9381 74.4628 47.0619 74.4628 45.985 73.2663L35.5667 61.6904C32.6268 58.4238 31 54.1845 31 49.7897V49Z" stroke="#8CFAA5" stroke-width="2"/>
    </g>
    <rect width="96" height="27" rx="4" fill="#10B981"/>
    <path d="M14.9047 12.0597C14.8336 11.8295 14.7356 11.6236 14.6106 11.4418C14.4885 11.2571 14.3407 11.0994 14.1674 10.9688C13.997 10.8381 13.801 10.7401 13.5794 10.6747C13.3578 10.6065 13.1163 10.5724 12.8549 10.5724C12.3862 10.5724 11.9686 10.6903 11.6021 10.9261C11.2356 11.1619 10.9473 11.5085 10.737 11.9659C10.5297 12.4205 10.426 12.9744 10.426 13.6278C10.426 14.2869 10.5297 14.8452 10.737 15.3026C10.9444 15.7599 11.2328 16.108 11.6021 16.3466C11.9714 16.5824 12.4004 16.7003 12.889 16.7003C13.3322 16.7003 13.7157 16.6151 14.0396 16.4446C14.3663 16.2741 14.6177 16.0327 14.7939 15.7202C14.97 15.4048 15.0581 15.0355 15.0581 14.6122L15.416 14.6676H13.0467V13.4318H16.5879V14.4801C16.5879 15.2273 16.4288 15.8736 16.1106 16.419C15.7924 16.9645 15.3549 17.3849 14.7981 17.6804C14.2413 17.973 13.6021 18.1193 12.8805 18.1193C12.0765 18.1193 11.3706 17.9389 10.7626 17.5781C10.1575 17.2145 9.68448 16.6989 9.34357 16.0312C9.0055 15.3608 8.83647 14.5653 8.83647 13.6449C8.83647 12.9403 8.9359 12.3111 9.13477 11.7571C9.33647 11.2031 9.61772 10.733 9.97852 10.3466C10.3393 9.95739 10.7626 9.66193 11.2484 9.46023C11.7342 9.25568 12.2626 9.15341 12.8336 9.15341C13.3166 9.15341 13.7669 9.22443 14.1845 9.36648C14.6021 9.50568 14.9728 9.70455 15.2967 9.96307C15.6234 10.2216 15.8919 10.5284 16.1021 10.8835C16.3123 11.2386 16.4501 11.6307 16.5154 12.0597H14.9047ZM22.2203 15.2472V11.4545H23.763V18H22.2672V16.8366H22.199C22.0513 17.2031 21.8084 17.5028 21.4703 17.7358C21.1351 17.9687 20.7218 18.0852 20.2303 18.0852C19.8013 18.0852 19.4221 17.9901 19.0925 17.7997C18.7658 17.6065 18.5101 17.3267 18.3255 16.9602C18.1408 16.5909 18.0485 16.1449 18.0485 15.6222V11.4545H19.5911V15.3835C19.5911 15.7983 19.7047 16.1278 19.932 16.3722C20.1593 16.6165 20.4576 16.7386 20.8269 16.7386C21.0542 16.7386 21.2743 16.6832 21.4874 16.5724C21.7005 16.4616 21.8752 16.2969 22.0115 16.0781C22.1507 15.8565 22.2203 15.5795 22.2203 15.2472ZM19.638 10.4915C19.4135 10.4915 19.2189 10.4119 19.0542 10.2528C18.8922 10.0937 18.8113 9.90625 18.8113 9.69034C18.8113 9.46307 18.8922 9.27273 19.0542 9.11932C19.2189 8.96307 19.4135 8.88494 19.638 8.88494C19.8681 8.88494 20.0613 8.96307 20.2175 9.11932C20.3766 9.27273 20.4561 9.46307 20.4561 9.69034C20.4561 9.90625 20.3766 10.0937 20.2175 10.2528C20.0613 10.4119 19.8681 10.4915 19.638 10.4915ZM22.1948 10.4915C21.9703 10.4915 21.7757 10.4119 21.611 10.2528C21.449 10.0937 21.3681 9.90625 21.3681 9.69034C21.3681 9.46307 21.449 9.27273 21.611 9.11932C21.7757 8.96307 21.9703 8.88494 22.1948 8.88494C22.4249 8.88494 22.6181 8.96307 22.7743 9.11932C22.9334 9.27273 23.013 9.46307 23.013 9.69034C23.013 9.90625 22.9334 10.0937 22.7743 10.2528C22.6181 10.4119 22.4249 10.4915 22.1948 10.4915ZM31.1958 11.4545L28.8649 18H27.1603L24.8294 11.4545H26.4743L27.9785 16.3168H28.0467L29.5552 11.4545H31.1958ZM34.9384 18.1278C34.2821 18.1278 33.7154 17.9915 33.2381 17.7188C32.7637 17.4432 32.3986 17.054 32.1429 16.5511C31.8873 16.0455 31.7594 15.4503 31.7594 14.7656C31.7594 14.0923 31.8873 13.5014 32.1429 12.9929C32.4015 12.4815 32.7623 12.0838 33.2253 11.7997C33.6884 11.5128 34.2324 11.3693 34.8574 11.3693C35.2608 11.3693 35.6415 11.4347 35.9995 11.5653C36.3603 11.6932 36.6784 11.892 36.954 12.1619C37.2324 12.4318 37.4512 12.7756 37.6103 13.1932C37.7694 13.608 37.8489 14.1023 37.8489 14.6761V15.1491H32.4838V14.1094H36.3702C36.3674 13.8139 36.3034 13.5511 36.1784 13.321C36.0534 13.0881 35.8787 12.9048 35.6543 12.7713C35.4327 12.6378 35.1742 12.571 34.8787 12.571C34.5634 12.571 34.2864 12.6477 34.0478 12.8011C33.8091 12.9517 33.623 13.1506 33.4895 13.3977C33.3588 13.642 33.2921 13.9105 33.2892 14.2031V15.1108C33.2892 15.4915 33.3588 15.8182 33.498 16.0909C33.6373 16.3608 33.8319 16.5682 34.0819 16.7131C34.3319 16.8551 34.6245 16.9261 34.9597 16.9261C35.1841 16.9261 35.3873 16.8949 35.5691 16.8324C35.7509 16.767 35.9086 16.6719 36.0421 16.5469C36.1756 16.4219 36.2765 16.267 36.3446 16.0824L37.785 16.2443C37.6941 16.625 37.5208 16.9574 37.2651 17.2415C37.0123 17.5227 36.6884 17.7415 36.2935 17.8977C35.8986 18.0511 35.4469 18.1278 34.9384 18.1278ZM40.6966 14.1648V18H39.1539V11.4545H40.6284V12.5668H40.7051C40.8556 12.2003 41.0957 11.9091 41.4252 11.6932C41.7576 11.4773 42.1681 11.3693 42.6568 11.3693C43.1085 11.3693 43.502 11.4659 43.8372 11.6591C44.1752 11.8523 44.4366 12.1321 44.6213 12.4986C44.8088 12.8651 44.9011 13.3097 44.8983 13.8324V18H43.3556V14.071C43.3556 13.6335 43.242 13.2912 43.0147 13.044C42.7903 12.7969 42.4792 12.6733 42.0815 12.6733C41.8116 12.6733 41.5716 12.733 41.3613 12.8523C41.1539 12.9687 40.9906 13.1378 40.8713 13.3594C40.7548 13.581 40.6966 13.8494 40.6966 14.1648ZM48.0091 9.27273V18H46.4664V9.27273H48.0091ZM49.5953 18V11.4545H51.138V18H49.5953ZM50.3709 10.5256C50.1266 10.5256 49.9164 10.4446 49.7402 10.2827C49.5641 10.1179 49.476 9.92045 49.476 9.69034C49.476 9.45739 49.5641 9.25994 49.7402 9.09801C49.9164 8.93324 50.1266 8.85085 50.3709 8.85085C50.6181 8.85085 50.8283 8.93324 51.0016 9.09801C51.1777 9.25994 51.2658 9.45739 51.2658 9.69034C51.2658 9.92045 51.1777 10.1179 51.0016 10.2827C50.8283 10.4446 50.6181 10.5256 50.3709 10.5256ZM57.2434 14.1648V18H55.7008V11.4545H57.1752V12.5668H57.252C57.4025 12.2003 57.6426 11.9091 57.9721 11.6932C58.3045 11.4773 58.715 11.3693 59.2037 11.3693C59.6554 11.3693 60.0488 11.4659 60.3841 11.6591C60.7221 11.8523 60.9835 12.1321 61.1681 12.4986C61.3556 12.8651 61.448 13.3097 61.4451 13.8324V18H59.9025V14.071C59.9025 13.6335 59.7889 13.2912 59.5616 13.044C59.3372 12.7969 59.0261 12.6733 58.6284 12.6733C58.3585 12.6733 58.1184 12.733 57.9082 12.8523C57.7008 12.9687 57.5375 13.1378 57.4181 13.3594C57.3017 13.581 57.2434 13.8494 57.2434 14.1648ZM65.8684 18.1278C65.2292 18.1278 64.6752 17.9872 64.2065 17.706C63.7377 17.4247 63.3741 17.0312 63.1156 16.5256C62.8599 16.0199 62.7321 15.429 62.7321 14.7528C62.7321 14.0767 62.8599 13.4844 63.1156 12.9759C63.3741 12.4673 63.7377 12.0724 64.2065 11.7912C64.6752 11.5099 65.2292 11.3693 65.8684 11.3693C66.5076 11.3693 67.0616 11.5099 67.5304 11.7912C67.9991 12.0724 68.3613 12.4673 68.617 12.9759C68.8755 13.4844 69.0048 14.0767 69.0048 14.7528C69.0048 15.429 68.8755 16.0199 68.617 16.5256C68.3613 17.0312 67.9991 17.4247 67.5304 17.706C67.0616 17.9872 66.5076 18.1278 65.8684 18.1278ZM65.877 16.892C66.2235 16.892 66.5133 16.7969 66.7463 16.6065C66.9792 16.4134 67.1525 16.1548 67.2662 15.831C67.3826 15.5071 67.4409 15.1463 67.4409 14.7486C67.4409 14.348 67.3826 13.9858 67.2662 13.6619C67.1525 13.3352 66.9792 13.0753 66.7463 12.8821C66.5133 12.6889 66.2235 12.5923 65.877 12.5923C65.5218 12.5923 65.2264 12.6889 64.9906 12.8821C64.7576 13.0753 64.5829 13.3352 64.4664 13.6619C64.3528 13.9858 64.296 14.348 64.296 14.7486C64.296 15.1463 64.3528 15.5071 64.4664 15.831C64.5829 16.1548 64.7576 16.4134 64.9906 16.6065C65.2264 16.7969 65.5218 16.892 65.877 16.892ZM71.7203 15.946L71.7161 14.0838H71.9632L74.3155 11.4545H76.1181L73.2246 14.6761H72.905L71.7203 15.946ZM70.3141 18V9.27273H71.8567V18H70.3141ZM74.4221 18L72.2914 15.0213L73.3311 13.9347L76.2672 18H74.4221ZM80.4146 11.4545V12.6477H76.6518V11.4545H80.4146ZM77.5808 9.88636H79.1234V16.0312C79.1234 16.2386 79.1547 16.3977 79.2172 16.5085C79.2825 16.6165 79.3677 16.6903 79.4728 16.7301C79.5779 16.7699 79.6944 16.7898 79.8223 16.7898C79.9189 16.7898 80.0069 16.7827 80.0865 16.7685C80.1689 16.7543 80.2314 16.7415 80.274 16.7301L80.5339 17.9361C80.4515 17.9645 80.3336 17.9957 80.1802 18.0298C80.0297 18.0639 79.845 18.0838 79.6262 18.0895C79.2399 18.1009 78.8919 18.0426 78.5822 17.9148C78.2725 17.7841 78.0268 17.5824 77.845 17.3097C77.666 17.0369 77.5779 16.696 77.5808 16.2869V9.88636ZM83.5882 18.1321C83.1735 18.1321 82.7999 18.0582 82.4675 17.9105C82.138 17.7599 81.8766 17.5384 81.6834 17.2457C81.4931 16.9531 81.3979 16.5923 81.3979 16.1634C81.3979 15.794 81.4661 15.4886 81.6025 15.2472C81.7388 15.0057 81.9249 14.8125 82.1607 14.6676C82.3965 14.5227 82.6621 14.4134 82.9576 14.3395C83.2559 14.2628 83.5641 14.2074 83.8823 14.1733C84.2658 14.1335 84.5769 14.098 84.8155 14.0668C85.0542 14.0327 85.2275 13.9815 85.3354 13.9134C85.4462 13.8423 85.5016 13.733 85.5016 13.5852V13.5597C85.5016 13.2386 85.4064 12.9901 85.2161 12.8139C85.0257 12.6378 84.7516 12.5497 84.3936 12.5497C84.0158 12.5497 83.7161 12.6321 83.4945 12.7969C83.2757 12.9616 83.128 13.1562 83.0513 13.3807L81.611 13.1761C81.7246 12.7784 81.9121 12.446 82.1735 12.179C82.4348 11.9091 82.7544 11.7074 83.1323 11.5739C83.5101 11.4375 83.9277 11.3693 84.3851 11.3693C84.7005 11.3693 85.0144 11.4062 85.3269 11.4801C85.6394 11.554 85.9249 11.6761 86.1834 11.8466C86.4419 12.0142 86.6493 12.2429 86.8056 12.5327C86.9647 12.8224 87.0442 13.1847 87.0442 13.6193V18H85.5613V17.1009H85.5101C85.4164 17.2827 85.2843 17.4531 85.1138 17.6122C84.9462 17.7685 84.7346 17.8949 84.4789 17.9915C84.226 18.0852 83.9292 18.1321 83.5882 18.1321ZM83.9888 16.9986C84.2985 16.9986 84.5669 16.9375 84.7942 16.8153C85.0215 16.6903 85.1962 16.5256 85.3184 16.321C85.4434 16.1165 85.5059 15.8935 85.5059 15.652V14.8807C85.4576 14.9205 85.3752 14.9574 85.2587 14.9915C85.1451 15.0256 85.0172 15.0554 84.8752 15.081C84.7331 15.1065 84.5925 15.1293 84.4533 15.1491C84.3141 15.169 84.1934 15.1861 84.0911 15.2003C83.861 15.2315 83.655 15.2827 83.4732 15.3537C83.2914 15.4247 83.1479 15.5241 83.0428 15.652C82.9377 15.777 82.8851 15.9389 82.8851 16.1378C82.8851 16.4219 82.9888 16.6364 83.1962 16.7812C83.4036 16.9261 83.6678 16.9986 83.9888 16.9986Z" fill="white"/>
    <path d="M48 57.7917L46.7917 56.6917C42.5 52.8 39.6667 50.225 39.6667 47.0833C39.6667 44.5083 41.6834 42.5 44.25 42.5C45.7 42.5 47.0917 43.175 48 44.2333C48.9084 43.175 50.3 42.5 51.75 42.5C54.3167 42.5 56.3334 44.5083 56.3334 47.0833C56.3334 50.225 53.5 52.8 49.2084 56.6917L48 57.7917Z" fill="white"/>
    <defs>
        <filter id="filter0_d_1_2458" x="26" y="31" width="44" height="52.1637" filterUnits="userSpaceOnUse" color-interpolation-filters="sRGB">
            <feFlood flood-opacity="0" result="BackgroundImageFix"/>
            <feColorMatrix in="SourceAlpha" type="matrix" values="0 0 0 0 0 0 0 0 0 0 0 0 0 0 0 0 0 0 127 0" result="hardAlpha"/>
            <feOffset dy="4"/>
            <feGaussianBlur stdDeviation="2"/>
            <feComposite in2="hardAlpha" operator="out"/>
            <feColorMatrix type="matrix" values="0 0 0 0 0.708247 0 0 0 0 0.829167 0 0 0 0 0.735022 0 0 0 1 0"/>
            <feBlend mode="normal" in2="BackgroundImageFix" result="effect1_dropShadow_1_2458"/>
            <feBlend mode="normal" in="SourceGraphic" in2="effect1_dropShadow_1_2458" result="shape"/>
        </filter>
    </defs>
</svg>
