<svg width="122" height="77" viewBox="0 0 122 77" fill="none" xmlns="http://www.w3.org/2000/svg">
    <path d="M44 49C44 39.6112 51.6112 32 61 32C70.3888 32 78 39.6112 78 49V49.7897C78 54.1845 76.3732 58.4238 73.4333 61.6904L63.015 73.2663C61.9381 74.4628 60.0619 74.4628 58.985 73.2663L48.5667 61.6904C45.6268 58.4238 44 54.1845 44 49.7897V49Z" fill="#24389C" stroke="#24389C" stroke-width="2"/>
    <rect width="122" height="27" rx="4" fill="#24389C"/>
    <path d="M14.7504 12.0597C14.6793 11.8295 14.5813 11.6236 14.4563 11.4418C14.3342 11.2571 14.1864 11.0994 14.0131 10.9688C13.8427 10.8381 13.6467 10.7401 13.4251 10.6747C13.2035 10.6065 12.962 10.5724 12.7006 10.5724C12.2319 10.5724 11.8143 10.6903 11.4478 10.9261C11.0813 11.1619 10.793 11.5085 10.5827 11.9659C10.3754 12.4205 10.2717 12.9744 10.2717 13.6278C10.2717 14.2869 10.3754 14.8452 10.5827 15.3026C10.7901 15.7599 11.0785 16.108 11.4478 16.3466C11.8171 16.5824 12.2461 16.7003 12.7347 16.7003C13.1779 16.7003 13.5614 16.6151 13.8853 16.4446C14.212 16.2741 14.4634 16.0327 14.6396 15.7202C14.8157 15.4048 14.9038 15.0355 14.9038 14.6122L15.2617 14.6676H12.8924V13.4318H16.4336V14.4801C16.4336 15.2273 16.2745 15.8736 15.9563 16.419C15.6381 16.9645 15.2006 17.3849 14.6438 17.6804C14.087 17.973 13.4478 18.1193 12.7262 18.1193C11.9222 18.1193 11.2163 17.9389 10.6083 17.5781C10.0032 17.2145 9.53018 16.6989 9.18928 16.0312C8.85121 15.3608 8.68217 14.5653 8.68217 13.6449C8.68217 12.9403 8.78161 12.3111 8.98047 11.7571C9.18217 11.2031 9.46342 10.733 9.82422 10.3466C10.185 9.95739 10.6083 9.66193 11.0941 9.46023C11.5799 9.25568 12.1083 9.15341 12.6793 9.15341C13.1623 9.15341 13.6126 9.22443 14.0302 9.36648C14.4478 9.50568 14.8185 9.70455 15.1424 9.96307C15.4691 10.2216 15.7376 10.5284 15.9478 10.8835C16.158 11.2386 16.2958 11.6307 16.3612 12.0597H14.7504ZM20.7919 18.1278C20.1357 18.1278 19.5689 17.9915 19.0916 17.7188C18.6172 17.4432 18.2521 17.054 17.9964 16.5511C17.7408 16.0455 17.6129 15.4503 17.6129 14.7656C17.6129 14.0923 17.7408 13.5014 17.9964 12.9929C18.255 12.4815 18.6158 12.0838 19.0788 11.7997C19.5419 11.5128 20.0859 11.3693 20.7109 11.3693C21.1143 11.3693 21.495 11.4347 21.853 11.5653C22.2138 11.6932 22.532 11.892 22.8075 12.1619C23.0859 12.4318 23.3047 12.7756 23.4638 13.1932C23.6229 13.608 23.7024 14.1023 23.7024 14.6761V15.1491H18.3374V14.1094H22.2237C22.2209 13.8139 22.157 13.5511 22.032 13.321C21.907 13.0881 21.7322 12.9048 21.5078 12.7713C21.2862 12.6378 21.0277 12.571 20.7322 12.571C20.4169 12.571 20.1399 12.6477 19.9013 12.8011C19.6626 12.9517 19.4766 13.1506 19.343 13.3977C19.2124 13.642 19.1456 13.9105 19.1428 14.2031V15.1108C19.1428 15.4915 19.2124 15.8182 19.3516 16.0909C19.4908 16.3608 19.6854 16.5682 19.9354 16.7131C20.1854 16.8551 20.478 16.9261 20.8132 16.9261C21.0376 16.9261 21.2408 16.8949 21.4226 16.8324C21.6044 16.767 21.7621 16.6719 21.8956 16.5469C22.0291 16.4219 22.13 16.267 22.1982 16.0824L23.6385 16.2443C23.5476 16.625 23.3743 16.9574 23.1186 17.2415C22.8658 17.5227 22.5419 17.7415 22.147 17.8977C21.7521 18.0511 21.3004 18.1278 20.7919 18.1278ZM27.8626 18.1278C27.2092 18.1278 26.6481 17.9844 26.1793 17.6974C25.7134 17.4105 25.354 17.0142 25.1012 16.5085C24.8512 16 24.7262 15.4148 24.7262 14.7528C24.7262 14.0881 24.854 13.5014 25.1097 12.9929C25.3654 12.4815 25.7262 12.0838 26.1921 11.7997C26.6609 11.5128 27.2148 11.3693 27.854 11.3693C28.3853 11.3693 28.8555 11.4673 29.2646 11.6634C29.6765 11.8565 30.0046 12.1307 30.2489 12.4858C30.4933 12.8381 30.6325 13.25 30.6665 13.7216H29.1921C29.1325 13.4062 28.9904 13.1435 28.766 12.9332C28.5444 12.7202 28.2475 12.6136 27.8754 12.6136C27.56 12.6136 27.283 12.6989 27.0444 12.8693C26.8058 13.0369 26.6197 13.2784 26.4862 13.5938C26.3555 13.9091 26.2901 14.2869 26.2901 14.7273C26.2901 15.1733 26.3555 15.5568 26.4862 15.8778C26.6168 16.196 26.8001 16.4418 27.0359 16.6151C27.2745 16.7855 27.5543 16.8707 27.8754 16.8707C28.1026 16.8707 28.3058 16.8281 28.4847 16.7429C28.6665 16.6548 28.8185 16.5284 28.9407 16.3636C29.0629 16.1989 29.1467 15.9986 29.1921 15.7628H30.6665C30.6296 16.2259 30.4933 16.6364 30.2575 16.9943C30.0217 17.3494 29.7006 17.6278 29.2944 17.8295C28.8881 18.0284 28.4109 18.1278 27.8626 18.1278ZM34.831 18.1278C34.1747 18.1278 33.608 17.9915 33.1307 17.7188C32.6563 17.4432 32.2912 17.054 32.0355 16.5511C31.7798 16.0455 31.652 15.4503 31.652 14.7656C31.652 14.0923 31.7798 13.5014 32.0355 12.9929C32.294 12.4815 32.6548 12.0838 33.1179 11.7997C33.581 11.5128 34.125 11.3693 34.75 11.3693C35.1534 11.3693 35.5341 11.4347 35.892 11.5653C36.2528 11.6932 36.571 11.892 36.8466 12.1619C37.125 12.4318 37.3438 12.7756 37.5028 13.1932C37.6619 13.608 37.7415 14.1023 37.7415 14.6761V15.1491H32.3764V14.1094H36.2628C36.2599 13.8139 36.196 13.5511 36.071 13.321C35.946 13.0881 35.7713 12.9048 35.5469 12.7713C35.3253 12.6378 35.0668 12.571 34.7713 12.571C34.456 12.571 34.179 12.6477 33.9403 12.8011C33.7017 12.9517 33.5156 13.1506 33.3821 13.3977C33.2514 13.642 33.1847 13.9105 33.1818 14.2031V15.1108C33.1818 15.4915 33.2514 15.8182 33.3906 16.0909C33.5298 16.3608 33.7244 16.5682 33.9744 16.7131C34.2244 16.8551 34.517 16.9261 34.8523 16.9261C35.0767 16.9261 35.2798 16.8949 35.4616 16.8324C35.6435 16.767 35.8011 16.6719 35.9347 16.5469C36.0682 16.4219 36.169 16.267 36.2372 16.0824L37.6776 16.2443C37.5866 16.625 37.4134 16.9574 37.1577 17.2415C36.9048 17.5227 36.581 17.7415 36.1861 17.8977C35.7912 18.0511 35.3395 18.1278 34.831 18.1278ZM47.9379 12.0597C47.8668 11.8295 47.7688 11.6236 47.6438 11.4418C47.5217 11.2571 47.3739 11.0994 47.2006 10.9688C47.0302 10.8381 46.8342 10.7401 46.6126 10.6747C46.391 10.6065 46.1495 10.5724 45.8881 10.5724C45.4194 10.5724 45.0018 10.6903 44.6353 10.9261C44.2688 11.1619 43.9805 11.5085 43.7702 11.9659C43.5629 12.4205 43.4592 12.9744 43.4592 13.6278C43.4592 14.2869 43.5629 14.8452 43.7702 15.3026C43.9776 15.7599 44.266 16.108 44.6353 16.3466C45.0046 16.5824 45.4336 16.7003 45.9222 16.7003C46.3654 16.7003 46.7489 16.6151 47.0728 16.4446C47.3995 16.2741 47.6509 16.0327 47.8271 15.7202C48.0032 15.4048 48.0913 15.0355 48.0913 14.6122L48.4492 14.6676H46.0799V13.4318H49.6211V14.4801C49.6211 15.2273 49.462 15.8736 49.1438 16.419C48.8256 16.9645 48.3881 17.3849 47.8313 17.6804C47.2745 17.973 46.6353 18.1193 45.9137 18.1193C45.1097 18.1193 44.4038 17.9389 43.7958 17.5781C43.1907 17.2145 42.7177 16.6989 42.3768 16.0312C42.0387 15.3608 41.8697 14.5653 41.8697 13.6449C41.8697 12.9403 41.9691 12.3111 42.168 11.7571C42.3697 11.2031 42.6509 10.733 43.0117 10.3466C43.3725 9.95739 43.7958 9.66193 44.2816 9.46023C44.7674 9.25568 45.2958 9.15341 45.8668 9.15341C46.3498 9.15341 46.8001 9.22443 47.2177 9.36648C47.6353 9.50568 48.006 9.70455 48.3299 9.96307C48.6566 10.2216 48.9251 10.5284 49.1353 10.8835C49.3455 11.2386 49.4833 11.6307 49.5487 12.0597H47.9379ZM55.2536 15.2472V11.4545H56.7962V18H55.3004V16.8366H55.2322C55.0845 17.2031 54.8416 17.5028 54.5036 17.7358C54.1683 17.9687 53.755 18.0852 53.2635 18.0852C52.8345 18.0852 52.4553 17.9901 52.1257 17.7997C51.799 17.6065 51.5433 17.3267 51.3587 16.9602C51.174 16.5909 51.0817 16.1449 51.0817 15.6222V11.4545H52.6243V15.3835C52.6243 15.7983 52.7379 16.1278 52.9652 16.3722C53.1925 16.6165 53.4908 16.7386 53.8601 16.7386C54.0874 16.7386 54.3075 16.6832 54.5206 16.5724C54.7337 16.4616 54.9084 16.2969 55.0447 16.0781C55.1839 15.8565 55.2536 15.5795 55.2536 15.2472ZM52.6712 10.4915C52.4467 10.4915 52.2521 10.4119 52.0874 10.2528C51.9254 10.0937 51.8445 9.90625 51.8445 9.69034C51.8445 9.46307 51.9254 9.27273 52.0874 9.11932C52.2521 8.96307 52.4467 8.88494 52.6712 8.88494C52.9013 8.88494 53.0945 8.96307 53.2507 9.11932C53.4098 9.27273 53.4893 9.46307 53.4893 9.69034C53.4893 9.90625 53.4098 10.0937 53.2507 10.2528C53.0945 10.4119 52.9013 10.4915 52.6712 10.4915ZM55.228 10.4915C55.0036 10.4915 54.8089 10.4119 54.6442 10.2528C54.4822 10.0937 54.4013 9.90625 54.4013 9.69034C54.4013 9.46307 54.4822 9.27273 54.6442 9.11932C54.8089 8.96307 55.0036 8.88494 55.228 8.88494C55.4581 8.88494 55.6513 8.96307 55.8075 9.11932C55.9666 9.27273 56.0462 9.46307 56.0462 9.69034C56.0462 9.90625 55.9666 10.0937 55.8075 10.2528C55.6513 10.4119 55.4581 10.4915 55.228 10.4915ZM64.229 11.4545L61.8981 18H60.1935L57.8626 11.4545H59.5075L61.0117 16.3168H61.0799L62.5884 11.4545H64.229ZM67.9716 18.1278C67.3153 18.1278 66.7486 17.9915 66.2713 17.7188C65.7969 17.4432 65.4318 17.054 65.1761 16.5511C64.9205 16.0455 64.7926 15.4503 64.7926 14.7656C64.7926 14.0923 64.9205 13.5014 65.1761 12.9929C65.4347 12.4815 65.7955 12.0838 66.2585 11.7997C66.7216 11.5128 67.2656 11.3693 67.8906 11.3693C68.294 11.3693 68.6747 11.4347 69.0327 11.5653C69.3935 11.6932 69.7116 11.892 69.9872 12.1619C70.2656 12.4318 70.4844 12.7756 70.6435 13.1932C70.8026 13.608 70.8821 14.1023 70.8821 14.6761V15.1491H65.517V14.1094H69.4034C69.4006 13.8139 69.3366 13.5511 69.2116 13.321C69.0866 13.0881 68.9119 12.9048 68.6875 12.7713C68.4659 12.6378 68.2074 12.571 67.9119 12.571C67.5966 12.571 67.3196 12.6477 67.081 12.8011C66.8423 12.9517 66.6563 13.1506 66.5227 13.3977C66.392 13.642 66.3253 13.9105 66.3224 14.2031V15.1108C66.3224 15.4915 66.392 15.8182 66.5312 16.0909C66.6705 16.3608 66.8651 16.5682 67.1151 16.7131C67.3651 16.8551 67.6577 16.9261 67.9929 16.9261C68.2173 16.9261 68.4205 16.8949 68.6023 16.8324C68.7841 16.767 68.9418 16.6719 69.0753 16.5469C69.2088 16.4219 69.3097 16.267 69.3778 16.0824L70.8182 16.2443C70.7273 16.625 70.554 16.9574 70.2983 17.2415C70.0455 17.5227 69.7216 17.7415 69.3267 17.8977C68.9318 18.0511 68.4801 18.1278 67.9716 18.1278ZM73.7298 14.1648V18H72.1871V11.4545H73.6616V12.5668H73.7383C73.8888 12.2003 74.1289 11.9091 74.4585 11.6932C74.7908 11.4773 75.2013 11.3693 75.69 11.3693C76.1417 11.3693 76.5352 11.4659 76.8704 11.6591C77.2085 11.8523 77.4698 12.1321 77.6545 12.4986C77.842 12.8651 77.9343 13.3097 77.9315 13.8324V18H76.3888V14.071C76.3888 13.6335 76.2752 13.2912 76.0479 13.044C75.8235 12.7969 75.5124 12.6733 75.1147 12.6733C74.8448 12.6733 74.6048 12.733 74.3945 12.8523C74.1871 12.9687 74.0238 13.1378 73.9045 13.3594C73.788 13.581 73.7298 13.8494 73.7298 14.1648ZM81.0423 9.27273V18H79.4996V9.27273H81.0423ZM82.6286 18V11.4545H84.1712V18H82.6286ZM83.4041 10.5256C83.1598 10.5256 82.9496 10.4446 82.7734 10.2827C82.5973 10.1179 82.5092 9.92045 82.5092 9.69034C82.5092 9.45739 82.5973 9.25994 82.7734 9.09801C82.9496 8.93324 83.1598 8.85085 83.4041 8.85085C83.6513 8.85085 83.8615 8.93324 84.0348 9.09801C84.2109 9.25994 84.299 9.45739 84.299 9.69034C84.299 9.92045 84.2109 10.1179 84.0348 10.2827C83.8615 10.4446 83.6513 10.5256 83.4041 10.5256ZM89.9229 18H88.2354L91.3079 9.27273H93.2596L96.3363 18H94.6488L92.3178 11.0625H92.2496L89.9229 18ZM89.9783 14.5781H94.5806V15.848H89.9783V14.5781ZM98.9602 9.27273V18H97.4176V9.27273H98.9602ZM102.43 18.1321C102.015 18.1321 101.642 18.0582 101.309 17.9105C100.98 17.7599 100.718 17.5384 100.525 17.2457C100.335 16.9531 100.24 16.5923 100.24 16.1634C100.24 15.794 100.308 15.4886 100.444 15.2472C100.581 15.0057 100.767 14.8125 101.002 14.6676C101.238 14.5227 101.504 14.4134 101.799 14.3395C102.098 14.2628 102.406 14.2074 102.724 14.1733C103.108 14.1335 103.419 14.098 103.657 14.0668C103.896 14.0327 104.069 13.9815 104.177 13.9134C104.288 13.8423 104.343 13.733 104.343 13.5852V13.5597C104.343 13.2386 104.248 12.9901 104.058 12.8139C103.868 12.6378 103.593 12.5497 103.235 12.5497C102.858 12.5497 102.558 12.6321 102.336 12.7969C102.118 12.9616 101.97 13.1562 101.893 13.3807L100.453 13.1761C100.566 12.7784 100.754 12.446 101.015 12.179C101.277 11.9091 101.596 11.7074 101.974 11.5739C102.352 11.4375 102.77 11.3693 103.227 11.3693C103.542 11.3693 103.856 11.4062 104.169 11.4801C104.481 11.554 104.767 11.6761 105.025 11.8466C105.284 12.0142 105.491 12.2429 105.647 12.5327C105.806 12.8224 105.886 13.1847 105.886 13.6193V18H104.403V17.1009H104.352C104.258 17.2827 104.126 17.4531 103.956 17.6122C103.788 17.7685 103.576 17.8949 103.321 17.9915C103.068 18.0852 102.771 18.1321 102.43 18.1321ZM102.831 16.9986C103.14 16.9986 103.409 16.9375 103.636 16.8153C103.863 16.6903 104.038 16.5256 104.16 16.321C104.285 16.1165 104.348 15.8935 104.348 15.652V14.8807C104.299 14.9205 104.217 14.9574 104.1 14.9915C103.987 15.0256 103.859 15.0554 103.717 15.081C103.575 15.1065 103.434 15.1293 103.295 15.1491C103.156 15.169 103.035 15.1861 102.933 15.2003C102.703 15.2315 102.497 15.2827 102.315 15.3537C102.133 15.4247 101.99 15.5241 101.885 15.652C101.779 15.777 101.727 15.9389 101.727 16.1378C101.727 16.4219 101.831 16.6364 102.038 16.7812C102.245 16.9261 102.51 16.9986 102.831 16.9986ZM108.98 14.1648V18H107.437V11.4545H108.912V12.5668H108.988C109.139 12.2003 109.379 11.9091 109.708 11.6932C110.041 11.4773 110.451 11.3693 110.94 11.3693C111.392 11.3693 111.785 11.4659 112.12 11.6591C112.458 11.8523 112.72 12.1321 112.904 12.4986C113.092 12.8651 113.184 13.3097 113.181 13.8324V18H111.639V14.071C111.639 13.6335 111.525 13.2912 111.298 13.044C111.074 12.7969 110.762 12.6733 110.365 12.6733C110.095 12.6733 109.855 12.733 109.645 12.8523C109.437 12.9687 109.274 13.1378 109.154 13.3594C109.038 13.581 108.98 13.8494 108.98 14.1648Z" fill="white"/>
    <path d="M69.3014 51.1394C68.9032 52.5645 68.1389 53.8604 67.0846 54.8984C66.0302 55.9363 64.7224 56.6801 63.2914 57.0557C61.8604 57.4313 60.356 57.4257 58.9278 57.0394C57.4997 56.653 56.1975 55.8995 55.151 54.8536C54.1044 53.8078 53.3498 52.5062 52.9624 51.0782C52.5749 49.6502 52.5681 48.1456 52.9425 46.7142C53.3169 45.2827 54.0596 43.9743 55.0966 42.9189C56.1336 41.8636 57.4288 41.0982 58.8533 40.6989C58.9577 40.6653 59.0688 40.6578 59.1767 40.6772C59.2846 40.6965 59.3861 40.7421 59.4723 40.8099C59.5585 40.8777 59.6267 40.9656 59.671 41.0659C59.7153 41.1663 59.7342 41.2759 59.7261 41.3853C59.7259 41.4372 59.7173 41.4887 59.7007 41.5378C59.3645 42.7514 59.3562 44.0323 59.6767 45.2501C59.9971 46.4678 60.6348 47.5788 61.5247 48.4696C62.4145 49.3604 63.5248 49.9993 64.7421 50.3209C65.9594 50.6425 67.2403 50.6355 68.454 50.3004L68.6404 50.2665C68.7878 50.2654 68.9317 50.3117 69.0508 50.3987C69.1698 50.4857 69.2577 50.6088 69.3014 50.7496C69.344 50.876 69.344 51.013 69.3014 51.1394Z" fill="white"/>
</svg>
