<svg width="64" height="84" viewBox="0 0 64 84" fill="none" xmlns="http://www.w3.org/2000/svg">
    <g filter="url(#filter0_d_1_2458)">
        <path d="M14 49C14 39.0589 22.0589 31 32 31C41.9411 31 50 39.0589 50 49V49.7897C50 54.4316 48.2818 58.9091 45.1766 62.3594L34.7583 73.9352C33.2842 75.5732 30.7158 75.5732 29.2417 73.9352L18.8234 62.3594C15.7182 58.9091 14 54.4316 14 49.7897V49Z" fill="#F97316"/>
        <path d="M15 49C15 39.6112 22.6112 32 32 32C41.3888 32 49 39.6112 49 49V49.7897C49 54.1845 47.3732 58.4238 44.4333 61.6904L34.015 73.2663C32.9381 74.4628 31.0619 74.4628 29.985 73.2663L19.5667 61.6904C16.6268 58.4238 15 54.1845 15 49.7897V49Z" stroke="#EA580C" stroke-width="2"/>
    </g>
    <rect width="64" height="27" rx="4" fill="#F97316"/>
    <path d="M9.04244 18V9.27273H12.3833C13.014 9.27273 13.5382 9.37216 13.9558 9.57102C14.3762 9.76705 14.6902 10.0355 14.8976 10.3764C15.1078 10.7173 15.2129 11.1037 15.2129 11.5355C15.2129 11.8906 15.1447 12.1946 15.0083 12.4474C14.872 12.6974 14.6887 12.9006 14.4586 13.0568C14.2285 13.2131 13.9714 13.3253 13.6873 13.3935V13.4787C13.997 13.4957 14.2939 13.5909 14.5779 13.7642C14.8649 13.9347 15.0993 14.1761 15.2811 14.4886C15.4629 14.8011 15.5538 15.179 15.5538 15.6222C15.5538 16.0739 15.4444 16.4801 15.2257 16.8409C15.0069 17.1989 14.6774 17.4815 14.237 17.6889C13.7967 17.8963 13.2427 18 12.5751 18H9.04244ZM10.6234 16.679H12.3237C12.8975 16.679 13.3109 16.5696 13.5637 16.3509C13.8194 16.1293 13.9473 15.8452 13.9473 15.4986C13.9473 15.2401 13.8833 15.0071 13.7555 14.7997C13.6277 14.5895 13.4458 14.4247 13.21 14.3054C12.9743 14.1832 12.693 14.1222 12.3663 14.1222H10.6234V16.679ZM10.6234 12.9844H12.1873C12.46 12.9844 12.7058 12.9347 12.9245 12.8352C13.1433 12.733 13.3152 12.5895 13.4402 12.4048C13.568 12.2173 13.6319 11.9957 13.6319 11.7401C13.6319 11.402 13.5126 11.1236 13.274 10.9048C13.0382 10.6861 12.6873 10.5767 12.2214 10.5767H10.6234V12.9844ZM18.7445 18.1321C18.3297 18.1321 17.9561 18.0582 17.6238 17.9105C17.2942 17.7599 17.0328 17.5384 16.8397 17.2457C16.6493 16.9531 16.5542 16.5923 16.5542 16.1634C16.5542 15.794 16.6223 15.4886 16.7587 15.2472C16.8951 15.0057 17.0811 14.8125 17.3169 14.6676C17.5527 14.5227 17.8184 14.4134 18.1138 14.3395C18.4121 14.2628 18.7203 14.2074 19.0385 14.1733C19.4221 14.1335 19.7331 14.098 19.9718 14.0668C20.2104 14.0327 20.3837 13.9815 20.4917 13.9134C20.6025 13.8423 20.6578 13.733 20.6578 13.5852V13.5597C20.6578 13.2386 20.5627 12.9901 20.3723 12.8139C20.182 12.6378 19.9078 12.5497 19.5499 12.5497C19.1721 12.5497 18.8723 12.6321 18.6507 12.7969C18.432 12.9616 18.2843 13.1562 18.2076 13.3807L16.7672 13.1761C16.8809 12.7784 17.0684 12.446 17.3297 12.179C17.5911 11.9091 17.9107 11.7074 18.2885 11.5739C18.6664 11.4375 19.084 11.3693 19.5414 11.3693C19.8567 11.3693 20.1706 11.4062 20.4831 11.4801C20.7956 11.554 21.0811 11.6761 21.3397 11.8466C21.5982 12.0142 21.8056 12.2429 21.9618 12.5327C22.1209 12.8224 22.2005 13.1847 22.2005 13.6193V18H20.7175V17.1009H20.6664C20.5726 17.2827 20.4405 17.4531 20.2701 17.6122C20.1025 17.7685 19.8908 17.8949 19.6351 17.9915C19.3823 18.0852 19.0854 18.1321 18.7445 18.1321ZM19.1451 16.9986C19.4547 16.9986 19.7232 16.9375 19.9505 16.8153C20.1777 16.6903 20.3525 16.5256 20.4746 16.321C20.5996 16.1165 20.6621 15.8935 20.6621 15.652V14.8807C20.6138 14.9205 20.5314 14.9574 20.415 14.9915C20.3013 15.0256 20.1735 15.0554 20.0314 15.081C19.8894 15.1065 19.7488 15.1293 19.6096 15.1491C19.4703 15.169 19.3496 15.1861 19.2473 15.2003C19.0172 15.2315 18.8113 15.2827 18.6294 15.3537C18.4476 15.4247 18.3042 15.5241 18.199 15.652C18.0939 15.777 18.0414 15.9389 18.0414 16.1378C18.0414 16.4219 18.1451 16.6364 18.3525 16.7812C18.5598 16.9261 18.824 16.9986 19.1451 16.9986ZM23.7516 18V11.4545H25.2473V12.5455H25.3155C25.4348 12.1676 25.6394 11.8764 25.9292 11.6719C26.2218 11.4645 26.5556 11.3608 26.9306 11.3608C27.0158 11.3608 27.111 11.3651 27.2161 11.3736C27.324 11.3793 27.4135 11.3892 27.4846 11.4034V12.8224C27.4192 12.7997 27.3155 12.7798 27.1735 12.7628C27.0343 12.7429 26.8993 12.733 26.7686 12.733C26.4874 12.733 26.2346 12.794 26.0101 12.9162C25.7885 13.0355 25.6138 13.2017 25.486 13.4148C25.3581 13.6278 25.2942 13.8736 25.2942 14.152V18H23.7516ZM28.5094 18V11.4545H30.052V18H28.5094ZM33.1809 14.1648V18H31.6383V11.4545H33.1127V12.5668H33.1895C33.34 12.2003 33.5801 11.9091 33.9096 11.6932C34.242 11.4773 34.6525 11.3693 35.1412 11.3693C35.5929 11.3693 35.9863 11.4659 36.3216 11.6591C36.6596 11.8523 36.921 12.1321 37.1056 12.4986C37.2931 12.8651 37.3855 13.3097 37.3826 13.8324V18H35.84V14.071C35.84 13.6335 35.7264 13.2912 35.4991 13.044C35.2747 12.7969 34.9636 12.6733 34.5659 12.6733C34.296 12.6733 34.0559 12.733 33.8457 12.8523C33.6383 12.9687 33.475 13.1378 33.3556 13.3594C33.2392 13.581 33.1809 13.8494 33.1809 14.1648ZM38.9508 18V11.4545H40.4252V12.5668H40.502C40.6383 12.1918 40.8642 11.8991 41.1795 11.6889C41.4949 11.4759 41.8713 11.3693 42.3088 11.3693C42.752 11.3693 43.1255 11.4773 43.4295 11.6932C43.7363 11.9062 43.9522 12.1974 44.0772 12.5668H44.1454C44.2903 12.2031 44.5346 11.9134 44.8784 11.6974C45.225 11.4787 45.6355 11.3693 46.1099 11.3693C46.7122 11.3693 47.2037 11.5597 47.5843 11.9403C47.965 12.321 48.1554 12.8764 48.1554 13.6065V18H46.6085V13.8452C46.6085 13.4389 46.5005 13.142 46.2846 12.9545C46.0687 12.7642 45.8045 12.669 45.492 12.669C45.1199 12.669 44.8287 12.7855 44.6184 13.0185C44.411 13.2486 44.3074 13.5483 44.3074 13.9176V18H42.7946V13.7812C42.7946 13.4432 42.6923 13.1733 42.4877 12.9716C42.286 12.7699 42.0218 12.669 41.6951 12.669C41.4735 12.669 41.2718 12.7259 41.09 12.8395C40.9082 12.9503 40.7633 13.108 40.6554 13.3125C40.5474 13.5142 40.4934 13.75 40.4934 14.0199V18H38.9508ZM51.6039 18.1321C51.1891 18.1321 50.8155 18.0582 50.4831 17.9105C50.1536 17.7599 49.8922 17.5384 49.699 17.2457C49.5087 16.9531 49.4135 16.5923 49.4135 16.1634C49.4135 15.794 49.4817 15.4886 49.6181 15.2472C49.7544 15.0057 49.9405 14.8125 50.1763 14.6676C50.4121 14.5227 50.6777 14.4134 50.9732 14.3395C51.2715 14.2628 51.5797 14.2074 51.8979 14.1733C52.2814 14.1335 52.5925 14.098 52.8311 14.0668C53.0698 14.0327 53.2431 13.9815 53.351 13.9134C53.4618 13.8423 53.5172 13.733 53.5172 13.5852V13.5597C53.5172 13.2386 53.4221 12.9901 53.2317 12.8139C53.0414 12.6378 52.7672 12.5497 52.4093 12.5497C52.0314 12.5497 51.7317 12.6321 51.5101 12.7969C51.2914 12.9616 51.1436 13.1562 51.0669 13.3807L49.6266 13.1761C49.7402 12.7784 49.9277 12.446 50.1891 12.179C50.4505 11.9091 50.7701 11.7074 51.1479 11.5739C51.5257 11.4375 51.9434 11.3693 52.4007 11.3693C52.7161 11.3693 53.03 11.4062 53.3425 11.4801C53.655 11.554 53.9405 11.6761 54.199 11.8466C54.4576 12.0142 54.665 12.2429 54.8212 12.5327C54.9803 12.8224 55.0598 13.1847 55.0598 13.6193V18H53.5769V17.1009H53.5257C53.432 17.2827 53.2999 17.4531 53.1294 17.6122C52.9618 17.7685 52.7502 17.8949 52.4945 17.9915C52.2417 18.0852 51.9448 18.1321 51.6039 18.1321ZM52.0044 16.9986C52.3141 16.9986 52.5826 16.9375 52.8098 16.8153C53.0371 16.6903 53.2118 16.5256 53.334 16.321C53.459 16.1165 53.5215 15.8935 53.5215 15.652V14.8807C53.4732 14.9205 53.3908 14.9574 53.2743 14.9915C53.1607 15.0256 53.0328 15.0554 52.8908 15.081C52.7488 15.1065 52.6081 15.1293 52.4689 15.1491C52.3297 15.169 52.209 15.1861 52.1067 15.2003C51.8766 15.2315 51.6706 15.2827 51.4888 15.3537C51.307 15.4247 51.1635 15.5241 51.0584 15.652C50.9533 15.777 50.9007 15.9389 50.9007 16.1378C50.9007 16.4219 51.0044 16.6364 51.2118 16.7812C51.4192 16.9261 51.6834 16.9986 52.0044 16.9986Z" fill="white"/>
    <path d="M32.8636 40.2652C32.7697 40.1537 32.6522 40.0641 32.5194 40.0025C32.3866 39.941 32.2417 39.9091 32.0951 39.9091C31.9484 39.9091 31.8036 39.941 31.6708 40.0025C31.538 40.0641 31.4204 40.1537 31.3265 40.2652C29.8715 41.9943 26.9635 44.0759 25.2883 45.0009C25.1527 45.0757 25.0366 45.1806 24.949 45.3075C24.8615 45.4343 24.805 45.5796 24.7839 45.7318L23.467 55.2012H23.0007C22.7353 55.2012 22.4808 55.3055 22.2931 55.4913C22.1054 55.677 22 55.9289 22 56.1915C22 56.4542 22.1054 56.7061 22.2931 56.8918C22.4808 57.0775 22.7353 57.1818 23.0007 57.1818H40.9993C41.2647 57.1818 41.5192 57.0775 41.7069 56.8918C41.8946 56.7061 42 56.4542 42 56.1915C42 55.9289 41.8946 55.677 41.7069 55.4913C41.5192 55.3055 41.2647 55.2012 40.9993 55.2012H40.7251L39.4062 45.7318C39.3854 45.5798 39.3292 45.4346 39.242 45.3078C39.1548 45.181 39.039 45.0759 38.9038 45.0009C37.2287 44.0759 34.3206 41.9923 32.8636 40.2652ZM29.6634 55.2012C30.4779 53.9475 31.3005 52.3946 32.069 50.2397C32.7775 52.2184 33.5581 53.7553 34.4827 55.2012H29.6634Z" fill="white"/>
    <defs>
        <filter id="filter0_d_1_2458" x="10" y="31" width="44" height="52.1637" filterUnits="userSpaceOnUse" color-interpolation-filters="sRGB">
            <feFlood flood-opacity="0" result="BackgroundImageFix"/>
            <feColorMatrix in="SourceAlpha" type="matrix" values="0 0 0 0 0 0 0 0 0 0 0 0 0 0 0 0 0 0 127 0" result="hardAlpha"/>
            <feOffset dy="4"/>
            <feGaussianBlur stdDeviation="2"/>
            <feComposite in2="hardAlpha" operator="out"/>
            <feColorMatrix type="matrix" values="0 0 0 0 0.970833 0 0 0 0 0.874349 0 0 0 0 0.784757 0 0 0 1 0"/>
            <feBlend mode="normal" in2="BackgroundImageFix" result="effect1_dropShadow_1_2458"/>
            <feBlend mode="normal" in="SourceGraphic" in2="effect1_dropShadow_1_2458" result="shape"/>
        </filter>
    </defs>
</svg>
