<svg width="52" height="84" viewBox="0 0 52 84" fill="none" xmlns="http://www.w3.org/2000/svg">
    <rect width="52" height="27" rx="4" fill="#8B5CF6"/>
    <path d="M10.2452 18H8.55771L11.6301 9.27273H13.5819L16.6586 18H14.9711L12.6401 11.0625H12.5719L10.2452 18ZM10.3006 14.5781H14.9029V15.848H10.3006V14.5781ZM22.8077 13.1847L21.4015 13.3381C21.3617 13.196 21.2921 13.0625 21.1926 12.9375C21.0961 12.8125 20.9654 12.7116 20.8006 12.6349C20.6358 12.5582 20.4341 12.5199 20.1955 12.5199C19.8745 12.5199 19.6046 12.5895 19.3858 12.7287C19.1699 12.8679 19.0634 13.0483 19.0662 13.2699C19.0634 13.4602 19.133 13.6151 19.275 13.7344C19.4199 13.8537 19.6586 13.9517 19.9909 14.0284L21.1074 14.267C21.7267 14.4006 22.187 14.6122 22.4881 14.902C22.7921 15.1918 22.9455 15.571 22.9483 16.0398C22.9455 16.4517 22.8248 16.8153 22.5861 17.1307C22.3503 17.4432 22.0222 17.6875 21.6017 17.8636C21.1813 18.0398 20.6983 18.1278 20.1529 18.1278C19.3517 18.1278 18.7069 17.9602 18.2182 17.625C17.7296 17.2869 17.4384 16.8168 17.3446 16.2145L18.8489 16.0696C18.9171 16.3651 19.062 16.5881 19.2836 16.7386C19.5051 16.8892 19.7935 16.9645 20.1486 16.9645C20.5151 16.9645 20.8091 16.8892 21.0307 16.7386C21.2551 16.5881 21.3674 16.402 21.3674 16.1804C21.3674 15.9929 21.2949 15.8381 21.15 15.7159C21.008 15.5937 20.7864 15.5 20.4853 15.4347L19.3688 15.2003C18.7409 15.0696 18.2765 14.8494 17.9753 14.5398C17.6742 14.2273 17.525 13.8324 17.5279 13.3551C17.525 12.9517 17.6344 12.6023 17.856 12.3068C18.0804 12.0085 18.3915 11.7784 18.7892 11.6165C19.1898 11.4517 19.6515 11.3693 20.1742 11.3693C20.9412 11.3693 21.5449 11.5327 21.9853 11.8594C22.4284 12.1861 22.7026 12.6278 22.8077 13.1847ZM19.7651 17.9659H20.6003L20.5321 18.3281C20.7992 18.3679 21.025 18.4702 21.2097 18.6349C21.3972 18.8026 21.4909 19.0426 21.4909 19.3551C21.4938 19.7585 21.3134 20.0824 20.9498 20.3267C20.5861 20.571 20.0676 20.6932 19.3944 20.6932L19.3773 19.9347C19.704 19.9347 19.964 19.8906 20.1571 19.8026C20.3503 19.7173 20.4483 19.581 20.4512 19.3935C20.4569 19.2116 20.3887 19.0781 20.2466 18.9929C20.1074 18.9105 19.8858 18.8537 19.5819 18.8224L19.7651 17.9659ZM27.2651 18V9.27273H32.9412V10.598H28.8461V12.9673H32.6472V14.2926H28.8461V16.6747H32.9753V18H27.2651ZM40.3326 11.4545L38.0016 18H36.2971L33.9661 11.4545H35.611L37.1152 16.3168H37.1834L38.6919 11.4545H40.3326ZM41.4 18V11.4545H42.9426V18H41.4ZM42.1756 10.5256C41.9313 10.5256 41.7211 10.4446 41.5449 10.2827C41.3688 10.1179 41.2807 9.92045 41.2807 9.69034C41.2807 9.45739 41.3688 9.25994 41.5449 9.09801C41.7211 8.93324 41.9313 8.85085 42.1756 8.85085C42.4228 8.85085 42.633 8.93324 42.8063 9.09801C42.9824 9.25994 43.0705 9.45739 43.0705 9.69034C43.0705 9.92045 42.9824 10.1179 42.8063 10.2827C42.633 10.4446 42.4228 10.5256 42.1756 10.5256Z" fill="white"/>
    <g filter="url(#filter0_d_1_2458)">
        <path d="M10 49C10 39.0589 18.0589 31 28 31C37.9411 31 46 39.0589 46 49V49.7897C46 54.4316 44.2818 58.9091 41.1766 62.3594L30.7583 73.9352C29.2842 75.5732 26.7158 75.5732 25.2417 73.9352L14.8234 62.3594C11.7182 58.9091 10 54.4316 10 49.7897V49Z" fill="#8B5CF6"/>
        <path d="M11 49C11 39.6112 18.6112 32 28 32C37.3888 32 45 39.6112 45 49V49.7897C45 54.1845 43.3732 58.4238 40.4333 61.6904L30.015 73.2663C28.9381 74.4628 27.0619 74.4628 25.985 73.2663L15.5667 61.6904C12.6268 58.4238 11 54.1845 11 49.7897V49Z" stroke="#6D28D9" stroke-width="2"/>
    </g>
    <path d="M34 49.8V55.4C34 55.8243 33.842 56.2313 33.5607 56.5314C33.2794 56.8314 32.8978 57 32.5 57C32.1022 57 31.7206 56.8314 31.4393 56.5314C31.158 56.2313 31 55.8243 31 55.4V51.4H29.5V43.4C29.5 42.7635 29.7371 42.153 30.159 41.7029C30.581 41.2529 31.1533 41 31.75 41H34V49.8ZM23.5 49C23.1022 49 22.7206 48.8314 22.4393 48.5314C22.158 48.2313 22 47.8243 22 47.4V41.8C22 41.5878 22.079 41.3843 22.2197 41.2343C22.3603 41.0843 22.5511 41 22.75 41C22.9489 41 23.1397 41.0843 23.2803 41.2343C23.421 41.3843 23.5 41.5878 23.5 41.8V45H24.25V41.8C24.25 41.5878 24.329 41.3843 24.4697 41.2343C24.6103 41.0843 24.8011 41 25 41C25.1989 41 25.3897 41.0843 25.5303 41.2343C25.671 41.3843 25.75 41.5878 25.75 41.8V45H26.5V41.8C26.5 41.5878 26.579 41.3843 26.7197 41.2343C26.8603 41.0843 27.0511 41 27.25 41C27.4489 41 27.6397 41.0843 27.7803 41.2343C27.921 41.3843 28 41.5878 28 41.8V47.4C28 47.8243 27.842 48.2313 27.5607 48.5314C27.2794 48.8314 26.8978 49 26.5 49V55.4C26.5 55.8243 26.342 56.2313 26.0607 56.5314C25.7794 56.8314 25.3978 57 25 57C24.6022 57 24.2206 56.8314 23.9393 56.5314C23.658 56.2313 23.5 55.8243 23.5 55.4V49Z" fill="white"/>
    <defs>
        <filter id="filter0_d_1_2458" x="6" y="31" width="44" height="52.1637" filterUnits="userSpaceOnUse" color-interpolation-filters="sRGB">
            <feFlood flood-opacity="0" result="BackgroundImageFix"/>
            <feColorMatrix in="SourceAlpha" type="matrix" values="0 0 0 0 0 0 0 0 0 0 0 0 0 0 0 0 0 0 127 0" result="hardAlpha"/>
            <feOffset dy="4"/>
            <feGaussianBlur stdDeviation="2"/>
            <feComposite in2="hardAlpha" operator="out"/>
            <feColorMatrix type="matrix" values="0 0 0 0 0.807407 0 0 0 0 0.772083 0 0 0 0 0.908333 0 0 0 1 0"/>
            <feBlend mode="normal" in2="BackgroundImageFix" result="effect1_dropShadow_1_2458"/>
            <feBlend mode="normal" in="SourceGraphic" in2="effect1_dropShadow_1_2458" result="shape"/>
        </filter>
    </defs>
</svg>
