<svg width="59" height="84" viewBox="0 0 59 84" fill="none" xmlns="http://www.w3.org/2000/svg">
    <g filter="url(#filter0_d_1_2458)">
        <path d="M12 49C12 39.0589 20.0589 31 30 31C39.9411 31 48 39.0589 48 49V49.7897C48 54.4316 46.2818 58.9091 43.1766 62.3594L32.7583 73.9352C31.2842 75.5732 28.7158 75.5732 27.2417 73.9352L16.8234 62.3594C13.7182 58.9091 12 54.4316 12 49.7897V49Z" fill="#0284C7"/>
        <path d="M13 49C13 39.6112 20.6112 32 30 32C39.3888 32 47 39.6112 47 49V49.7897C47 54.1845 45.3732 58.4238 42.4333 61.6904L32.015 73.2663C30.9381 74.4628 29.0619 74.4628 27.985 73.2663L17.5667 61.6904C14.6268 58.4238 13 54.1845 13 49.7897V49Z" stroke="#0369A1" stroke-width="2"/>
    </g>
    <rect width="59" height="27" rx="4" fill="#0284C7"/>
    <path d="M8.60227 10.598V9.27273H15.5653V10.598H12.8679V18H11.2997V10.598H8.60227ZM20.1207 15.2472V11.4545H21.6634V18H20.1676V16.8366H20.0994C19.9517 17.2031 19.7088 17.5028 19.3707 17.7358C19.0355 17.9687 18.6222 18.0852 18.1307 18.0852C17.7017 18.0852 17.3224 17.9901 16.9929 17.7997C16.6662 17.6065 16.4105 17.3267 16.2259 16.9602C16.0412 16.5909 15.9489 16.1449 15.9489 15.6222V11.4545H17.4915V15.3835C17.4915 15.7983 17.6051 16.1278 17.8324 16.3722C18.0597 16.6165 18.358 16.7386 18.7273 16.7386C18.9545 16.7386 19.1747 16.6832 19.3878 16.5724C19.6009 16.4616 19.7756 16.2969 19.9119 16.0781C20.0511 15.8565 20.1207 15.5795 20.1207 15.2472ZM29.0962 11.4545L26.7653 18H25.0607L22.7298 11.4545H24.3746L25.8789 16.3168H25.9471L27.4556 11.4545H29.0962ZM31.8597 18.1321C31.445 18.1321 31.0714 18.0582 30.739 17.9105C30.4094 17.7599 30.1481 17.5384 29.9549 17.2457C29.7646 16.9531 29.6694 16.5923 29.6694 16.1634C29.6694 15.794 29.7376 15.4886 29.8739 15.2472C30.0103 15.0057 30.1964 14.8125 30.4322 14.6676C30.668 14.5227 30.9336 14.4134 31.229 14.3395C31.5273 14.2628 31.8356 14.2074 32.1538 14.1733C32.5373 14.1335 32.8484 14.098 33.087 14.0668C33.3256 14.0327 33.4989 13.9815 33.6069 13.9134C33.7177 13.8423 33.7731 13.733 33.7731 13.5852V13.5597C33.7731 13.2386 33.6779 12.9901 33.4876 12.8139C33.2972 12.6378 33.0231 12.5497 32.6651 12.5497C32.2873 12.5497 31.9876 12.6321 31.766 12.7969C31.5472 12.9616 31.3995 13.1562 31.3228 13.3807L29.8825 13.1761C29.9961 12.7784 30.1836 12.446 30.445 12.179C30.7063 11.9091 31.0259 11.7074 31.4038 11.5739C31.7816 11.4375 32.1992 11.3693 32.6566 11.3693C32.9719 11.3693 33.2859 11.4062 33.5984 11.4801C33.9109 11.554 34.1964 11.6761 34.4549 11.8466C34.7134 12.0142 34.9208 12.2429 35.0771 12.5327C35.2362 12.8224 35.3157 13.1847 35.3157 13.6193V18H33.8327V17.1009H33.7816C33.6879 17.2827 33.5558 17.4531 33.3853 17.6122C33.2177 17.7685 33.006 17.8949 32.7504 17.9915C32.4975 18.0852 32.2006 18.1321 31.8597 18.1321ZM32.2603 16.9986C32.57 16.9986 32.8384 16.9375 33.0657 16.8153C33.293 16.6903 33.4677 16.5256 33.5898 16.321C33.7148 16.1165 33.7773 15.8935 33.7773 15.652V14.8807C33.729 14.9205 33.6467 14.9574 33.5302 14.9915C33.4165 15.0256 33.2887 15.0554 33.1467 15.081C33.0046 15.1065 32.864 15.1293 32.7248 15.1491C32.5856 15.169 32.4648 15.1861 32.3626 15.2003C32.1325 15.2315 31.9265 15.2827 31.7447 15.3537C31.5629 15.4247 31.4194 15.5241 31.3143 15.652C31.2092 15.777 31.1566 15.9389 31.1566 16.1378C31.1566 16.4219 31.2603 16.6364 31.4677 16.7812C31.6751 16.9261 31.9393 16.9986 32.2603 16.9986ZM38.4094 9.27273V18H36.8668V9.27273H38.4094ZM42.8935 18.1278C42.2372 18.1278 41.6705 17.9915 41.1932 17.7188C40.7188 17.4432 40.3537 17.054 40.098 16.5511C39.8423 16.0455 39.7145 15.4503 39.7145 14.7656C39.7145 14.0923 39.8423 13.5014 40.098 12.9929C40.3565 12.4815 40.7173 12.0838 41.1804 11.7997C41.6435 11.5128 42.1875 11.3693 42.8125 11.3693C43.2159 11.3693 43.5966 11.4347 43.9545 11.5653C44.3153 11.6932 44.6335 11.892 44.9091 12.1619C45.1875 12.4318 45.4063 12.7756 45.5653 13.1932C45.7244 13.608 45.804 14.1023 45.804 14.6761V15.1491H40.4389V14.1094H44.3253C44.3224 13.8139 44.2585 13.5511 44.1335 13.321C44.0085 13.0881 43.8338 12.9048 43.6094 12.7713C43.3878 12.6378 43.1293 12.571 42.8338 12.571C42.5185 12.571 42.2415 12.6477 42.0028 12.8011C41.7642 12.9517 41.5781 13.1506 41.4446 13.3977C41.3139 13.642 41.2472 13.9105 41.2443 14.2031V15.1108C41.2443 15.4915 41.3139 15.8182 41.4531 16.0909C41.5923 16.3608 41.7869 16.5682 42.0369 16.7131C42.2869 16.8551 42.5795 16.9261 42.9148 16.9261C43.1392 16.9261 43.3423 16.8949 43.5241 16.8324C43.706 16.767 43.8636 16.6719 43.9972 16.5469C44.1307 16.4219 44.2315 16.267 44.2997 16.0824L45.7401 16.2443C45.6491 16.625 45.4759 16.9574 45.2202 17.2415C44.9673 17.5227 44.6435 17.7415 44.2486 17.8977C43.8537 18.0511 43.402 18.1278 42.8935 18.1278ZM50.3775 11.4545V12.6477H46.6147V11.4545H50.3775ZM47.5437 9.88636H49.0863V16.0312C49.0863 16.2386 49.1175 16.3977 49.18 16.5085C49.2454 16.6165 49.3306 16.6903 49.4357 16.7301C49.5408 16.7699 49.6573 16.7898 49.7852 16.7898C49.8817 16.7898 49.9698 16.7827 50.0494 16.7685C50.1317 16.7543 50.1942 16.7415 50.2369 16.7301L50.4968 17.9361C50.4144 17.9645 50.2965 17.9957 50.1431 18.0298C49.9925 18.0639 49.8079 18.0838 49.5891 18.0895C49.2028 18.1009 48.8548 18.0426 48.5451 17.9148C48.2354 17.7841 47.9897 17.5824 47.8079 17.3097C47.6289 17.0369 47.5408 16.696 47.5437 16.2869V9.88636Z" fill="white"/>
    <path d="M37.5 47.75C37.5 47.5842 37.4342 47.4253 37.3169 47.3081C37.1997 47.1908 37.0408 47.125 36.875 47.125H23.125C22.9592 47.125 22.8003 47.1908 22.6831 47.3081C22.5658 47.4253 22.5 47.5842 22.5 47.75C22.5004 49.1385 22.8863 50.4995 23.6146 51.6817C24.3429 52.8638 25.3851 53.8205 26.625 54.4453L26.3594 56.3203C26.3323 56.4978 26.344 56.679 26.3936 56.8515C26.4433 57.024 26.5298 57.1837 26.6471 57.3196C26.7644 57.4555 26.9098 57.5643 27.0732 57.6386C27.2366 57.7129 27.4142 57.7509 27.5938 57.75H32.4062C32.5858 57.7509 32.7634 57.7129 32.9268 57.6386C33.0902 57.5643 33.2356 57.4555 33.3529 57.3196C33.4702 57.1837 33.5567 57.024 33.6064 56.8515C33.656 56.679 33.6677 56.4978 33.6406 56.3203L33.375 54.4453C34.6149 53.8205 35.6571 52.8638 36.3854 51.6817C37.1137 50.4995 37.4996 49.1385 37.5 47.75ZM27.5938 56.5L27.8203 54.9297C29.2421 55.3567 30.7579 55.3567 32.1797 54.9297L32.4062 56.5H27.5938ZM24.6875 45.875H35.3125C35.3954 45.875 35.4749 45.8421 35.5335 45.7835C35.5921 45.7249 35.625 45.6454 35.625 45.5625V42.125C35.625 41.7935 35.4933 41.4755 35.2589 41.2411C35.0245 41.0067 34.7065 40.875 34.375 40.875H25.625C25.2935 40.875 24.9755 41.0067 24.7411 41.2411C24.5067 41.4755 24.375 41.7935 24.375 42.125V45.5625C24.375 45.6454 24.4079 45.7249 24.4665 45.7835C24.5251 45.8421 24.6046 45.875 24.6875 45.875ZM26.875 42.75H28.125C28.2908 42.75 28.4497 42.8158 28.5669 42.9331C28.6842 43.0503 28.75 43.2092 28.75 43.375C28.75 43.5408 28.6842 43.6997 28.5669 43.8169C28.4497 43.9342 28.2908 44 28.125 44H26.875C26.7092 44 26.5503 43.9342 26.4331 43.8169C26.3158 43.6997 26.25 43.5408 26.25 43.375C26.25 43.2092 26.3158 43.0503 26.4331 42.9331C26.5503 42.8158 26.7092 42.75 26.875 42.75Z" fill="white"/>
    <defs>
        <filter id="filter0_d_1_2458" x="8" y="31" width="44" height="52.1637" filterUnits="userSpaceOnUse" color-interpolation-filters="sRGB">
            <feFlood flood-opacity="0" result="BackgroundImageFix"/>
            <feColorMatrix in="SourceAlpha" type="matrix" values="0 0 0 0 0 0 0 0 0 0 0 0 0 0 0 0 0 0 127 0" result="hardAlpha"/>
            <feOffset dy="4"/>
            <feGaussianBlur stdDeviation="2"/>
            <feComposite in2="hardAlpha" operator="out"/>
            <feColorMatrix type="matrix" values="0 0 0 0 0.805278 0 0 0 0 0.869516 0 0 0 0 0.929167 0 0 0 1 0"/>
            <feBlend mode="normal" in2="BackgroundImageFix" result="effect1_dropShadow_1_2458"/>
            <feBlend mode="normal" in="SourceGraphic" in2="effect1_dropShadow_1_2458" result="shape"/>
        </filter>
    </defs>
</svg>
