<svg width="72" height="20" viewBox="0 0 72 20" fill="none" xmlns="http://www.w3.org/2000/svg">
    <circle cx="63.9015" cy="10.856" r="7.76514" fill="#F97316"/>
    <g clip-path="url(#clip0_136_4685)">
        <path fill-rule="evenodd" clip-rule="evenodd" d="M66.5423 7.69758C67.9575 9.11274 67.9575 11.4072 66.5423 12.8223L63.9799 15.3847L61.4176 12.8223C60.0024 11.4072 60.0024 9.11274 61.4176 7.69758C62.8327 6.28243 65.1271 6.28243 66.5423 7.69758ZM63.9799 11.2953C64.5517 11.2953 65.0153 10.8318 65.0153 10.2599C65.0153 9.68814 64.5517 9.22459 63.9799 9.22459C63.4081 9.22459 62.9446 9.68814 62.9446 10.2599C62.9446 10.8318 63.4081 11.2953 63.9799 11.2953Z" fill="#111827"/>
    </g>
    <path d="M4.63932 17.7213C3.89153 17.7213 3.22514 17.5916 2.64014 17.3321C2.05514 17.0676 1.59222 16.6785 1.25139 16.1647C0.915654 15.6458 0.747784 14.9998 0.747784 14.2265C0.747784 13.5754 0.867328 13.0286 1.10642 12.586C1.3455 12.1434 1.67107 11.7873 2.08311 11.5177C2.49516 11.2481 2.96316 11.0446 3.48712 10.9073C4.01616 10.7699 4.57064 10.6733 5.15056 10.6173C5.83221 10.5461 6.3816 10.48 6.79873 10.4189C7.21587 10.3528 7.51854 10.2562 7.70676 10.129C7.89498 10.0018 7.98909 9.81359 7.98909 9.56433V9.51855C7.98909 9.03528 7.83648 8.66139 7.53126 8.39687C7.23113 8.13235 6.80382 8.00008 6.24934 8.00008C5.66434 8.00008 5.19888 8.1298 4.85297 8.38924C4.50705 8.64359 4.27814 8.96407 4.16623 9.35068L1.15983 9.1065C1.31244 8.39432 1.61257 7.7788 2.06022 7.25993C2.50788 6.73597 3.08525 6.3341 3.79234 6.05432C4.50451 5.76945 5.3286 5.62701 6.2646 5.62701C6.91573 5.62701 7.53889 5.70332 8.13406 5.85593C8.73433 6.00854 9.26591 6.24508 9.72883 6.56556C10.1968 6.88604 10.5656 7.29808 10.8352 7.80169C11.1049 8.30022 11.2397 8.89793 11.2397 9.59485V17.5H8.15696V15.8747H8.06539C7.87717 16.241 7.62537 16.564 7.30998 16.8438C6.99458 17.1185 6.6156 17.3347 6.17304 17.4924C5.73047 17.645 5.21923 17.7213 4.63932 17.7213ZM5.57023 15.4779C6.04841 15.4779 6.47063 15.3838 6.83689 15.1956C7.20315 15.0023 7.49056 14.7429 7.69913 14.4173C7.90769 14.0917 8.01198 13.7229 8.01198 13.3109V12.0671C7.91024 12.1332 7.77035 12.1943 7.5923 12.2502C7.41935 12.3011 7.2235 12.3494 7.00476 12.3952C6.78602 12.4359 6.56728 12.4741 6.34854 12.5097C6.1298 12.5402 5.93141 12.5682 5.75336 12.5936C5.37184 12.6496 5.03864 12.7386 4.75377 12.8607C4.4689 12.9828 4.24762 13.1481 4.08992 13.3567C3.93223 13.5601 3.85338 13.8145 3.85338 14.1197C3.85338 14.5623 4.01362 14.9006 4.3341 15.1346C4.65966 15.3635 5.07171 15.4779 5.57023 15.4779ZM18.8044 5.77962V8.22137H11.5707V5.77962H18.8044ZM13.2266 17.5V4.93264C13.2266 4.08312 13.3919 3.37857 13.7225 2.81901C14.0583 2.25944 14.5161 1.83976 15.096 1.55998C15.6759 1.2802 16.3347 1.14031 17.0723 1.14031C17.5708 1.14031 18.0261 1.17846 18.4382 1.25476C18.8553 1.33107 19.1656 1.39974 19.3691 1.46079L18.7892 3.90253C18.662 3.86184 18.5043 3.82368 18.3161 3.78807C18.1329 3.75247 17.9447 3.73466 17.7514 3.73466C17.2732 3.73466 16.94 3.84657 16.7518 4.0704C16.5636 4.28914 16.4695 4.5969 16.4695 4.99369V17.5H13.2266ZM24.452 17.7289C23.2464 17.7289 22.2087 17.4847 21.3388 16.9964C20.474 16.503 19.8076 15.806 19.3396 14.9056C18.8716 14.0002 18.6376 12.9294 18.6376 11.6932C18.6376 10.4876 18.8716 9.42952 19.3396 8.51896C19.8076 7.60839 20.4664 6.89876 21.3159 6.39006C22.1705 5.88136 23.1727 5.62701 24.3223 5.62701C25.0955 5.62701 25.8153 5.75164 26.4817 6.00091C27.1532 6.24508 27.7382 6.61389 28.2367 7.10732C28.7403 7.60076 29.132 8.22137 29.4118 8.96915C29.6916 9.71185 29.8315 10.5817 29.8315 11.5788V12.4715H19.9348V10.4571H26.7717C26.7717 9.98909 26.6699 9.5745 26.4665 9.21333C26.263 8.85215 25.9807 8.56983 25.6195 8.36635C25.2634 8.15778 24.8488 8.0535 24.3757 8.0535C23.8823 8.0535 23.4448 8.16795 23.0633 8.39687C22.6868 8.62069 22.3918 8.92337 22.1781 9.30489C21.9645 9.68133 21.8551 10.101 21.85 10.5639V12.4792C21.85 13.0591 21.9569 13.5601 22.1705 13.9824C22.3893 14.4046 22.697 14.7301 23.0938 14.9591C23.4906 15.188 23.9611 15.3024 24.5054 15.3024C24.8666 15.3024 25.1973 15.2516 25.4974 15.1498C25.7975 15.0481 26.0544 14.8955 26.2681 14.692C26.4817 14.4885 26.6445 14.2393 26.7564 13.9442L29.7628 14.1426C29.6102 14.8649 29.2974 15.4957 28.8243 16.035C28.3563 16.5691 27.7509 16.9862 27.0082 17.2863C26.2706 17.5814 25.4185 17.7289 24.452 17.7289ZM36.927 5.77962V8.22137H29.8688V5.77962H36.927ZM31.4712 2.97162H34.7218V13.8984C34.7218 14.1986 34.7676 14.4326 34.8591 14.6004C34.9507 14.7632 35.0779 14.8777 35.2406 14.9438C35.4085 15.0099 35.6018 15.043 35.8206 15.043C35.9732 15.043 36.1258 15.0303 36.2784 15.0048C36.431 14.9743 36.548 14.9514 36.6294 14.9362L37.1406 17.355C36.9778 17.4059 36.7489 17.4644 36.4539 17.5305C36.1588 17.6017 35.8002 17.645 35.378 17.6602C34.5946 17.6908 33.9079 17.5865 33.3178 17.3474C32.7328 17.1083 32.2775 16.737 31.9519 16.2333C31.6264 15.7297 31.4661 15.0939 31.4712 14.3257V2.97162Z" fill="#111827"/>
    <path d="M44.0187 5.77962V8.22137H36.9605V5.77962H44.0187ZM38.5629 2.97162H41.8134V13.8984C41.8134 14.1986 41.8592 14.4326 41.9508 14.6004C42.0424 14.7632 42.1695 14.8777 42.3323 14.9438C42.5002 15.0099 42.6935 15.043 42.9122 15.043C43.0648 15.043 43.2175 15.0303 43.3701 15.0048C43.5227 14.9743 43.6397 14.9514 43.7211 14.9362L44.2323 17.355C44.0695 17.4059 43.8406 17.4644 43.5456 17.5305C43.2505 17.6017 42.8919 17.645 42.4697 17.6602C41.6863 17.6908 40.9995 17.5865 40.4094 17.3474C39.8244 17.1083 39.3692 16.737 39.0436 16.2333C38.718 15.7297 38.5578 15.0939 38.5629 14.3257V2.97162ZM44.8762 17.5V5.77962H48.0276V7.82458H48.1497C48.3634 7.09715 48.722 6.54775 49.2256 6.17641C49.7292 5.79997 50.3091 5.61175 50.9653 5.61175C51.1281 5.61175 51.3036 5.62193 51.4918 5.64227C51.6801 5.66262 51.8454 5.6906 51.9878 5.72621V8.61052C51.8352 8.56474 51.6241 8.52404 51.3545 8.48843C51.0849 8.45283 50.8382 8.43502 50.6143 8.43502C50.1362 8.43502 49.7089 8.5393 49.3324 8.74787C48.9611 8.95135 48.666 9.23622 48.4473 9.60248C48.2336 9.96874 48.1268 10.391 48.1268 10.8691V17.5H44.8762ZM52.9656 17.6984C52.462 17.6984 52.0296 17.5203 51.6684 17.1643C51.3123 16.8031 51.1343 16.3707 51.1343 15.8671C51.1343 15.3686 51.3123 14.9413 51.6684 14.5852C52.0296 14.2291 52.462 14.051 52.9656 14.051C53.4539 14.051 53.8812 14.2291 54.2475 14.5852C54.6138 14.9413 54.7969 15.3686 54.7969 15.8671C54.7969 16.2028 54.7104 16.5106 54.5375 16.7904C54.3696 17.0651 54.1483 17.2863 53.8736 17.4542C53.5989 17.617 53.2962 17.6984 52.9656 17.6984Z" fill="#9CA3AF"/>
    <defs>
        <clipPath id="clip0_136_4685">
            <rect width="10.3535" height="10.3535" fill="white" transform="translate(58.8032 5.60086)"/>
        </clipPath>
    </defs>
</svg>
