<svg width="17" height="16" viewBox="0 0 17 16" fill="none" xmlns="http://www.w3.org/2000/svg">
    <path d="M2.31678 14C2.06122 14 1.87234 13.8889 1.75011 13.6667C1.62789 13.4444 1.62789 13.2222 1.75011 13L7.91678 2.33333C8.039 2.11111 8.23345 2 8.50011 2C8.76678 2 8.96123 2.11111 9.08345 2.33333L15.2501 13C15.3723 13.2222 15.3723 13.4444 15.2501 13.6667C15.1279 13.8889 14.939 14 14.6834 14H2.31678ZM8.50011 6.66667C8.31122 6.66667 8.153 6.73044 8.02545 6.858C7.89745 6.986 7.83345 7.14444 7.83345 7.33333V9.33333C7.83345 9.52222 7.89745 9.68044 8.02545 9.808C8.153 9.936 8.31122 10 8.50011 10C8.689 10 8.84745 9.936 8.97545 9.808C9.103 9.68044 9.16678 9.52222 9.16678 9.33333V7.33333C9.16678 7.14444 9.103 6.986 8.97545 6.858C8.84745 6.73044 8.689 6.66667 8.50011 6.66667ZM8.50011 12C8.689 12 8.84745 11.936 8.97545 11.808C9.103 11.6804 9.16678 11.5222 9.16678 11.3333C9.16678 11.1444 9.103 10.9862 8.97545 10.8587C8.84745 10.7307 8.689 10.6667 8.50011 10.6667C8.31122 10.6667 8.153 10.7307 8.02545 10.8587C7.89745 10.9862 7.83345 11.1444 7.83345 11.3333C7.83345 11.5222 7.89745 11.6804 8.02545 11.808C8.153 11.936 8.31122 12 8.50011 12Z"
          fill="currentColor"/>
</svg>
